<?xml version="1.0" encoding="UTF-8" standalone="no"?>
<!DOCTYPE svg PUBLIC "-//W3C//DTD SVG 1.1//EN" "http://www.w3.org/Graphics/SVG/1.1/DTD/svg11.dtd">
<svg width="100%" height="100%" viewBox="0 0 385 397" version="1.1" xmlns="http://www.w3.org/2000/svg" xmlns:xlink="http://www.w3.org/1999/xlink" xml:space="preserve" xmlns:serif="http://www.serif.com/" style="fill-rule:evenodd;clip-rule:evenodd;stroke-linecap:round;stroke-linejoin:round;stroke-miterlimit:10;">
    <g transform="matrix(1,0,0,1,-86.8788,-244.879)">
        <g transform="matrix(0,1,1,0,209.914,611.069)">
            <path d="M-22.743,-22.743L22.743,-22.743" style="fill:none;fill-rule:nonzero;stroke:rgb(117,243,255);stroke-width:15.78px;"/>
        </g>
        <g transform="matrix(0,1,1,0,151.364,611.069)">
            <path d="M-22.743,-22.743L22.743,-22.743" style="fill:none;fill-rule:nonzero;stroke:rgb(117,243,255);stroke-width:15.78px;"/>
        </g>
        <g transform="matrix(1,0,0,1,221.512,517.057)">
            <path d="M0,71.269L-122.415,71.269C-125.355,71.269 -127.439,68.397 -126.526,65.601L-106.087,2.984C-105.506,1.205 -103.847,0 -101.975,0L-20.439,0C-18.568,0 -16.909,1.205 -16.328,2.984L4.112,65.601C5.024,68.397 2.941,71.269 0,71.269Z" style="fill:none;fill-rule:nonzero;stroke:rgb(117,243,255);stroke-width:15.78px;"/>
        </g>
        <g transform="matrix(1,0,0,1,323.369,300.141)">
            <path d="M0,333.672L108.985,333.672C126.216,333.672 140.184,319.704 140.184,302.474L140.184,155.014C140.184,144.456 135.99,134.331 128.524,126.866L17.204,15.545C1.658,0 -23.546,0 -39.091,15.545L-151.406,127.86C-158.871,135.325 -163.065,145.45 -163.065,156.008L-163.065,216.917" style="fill:none;fill-rule:nonzero;stroke:rgb(117,243,255);stroke-width:15.78px;"/>
        </g>
        <g transform="matrix(1,0,0,1,294.776,416.092)">
            <path d="M0,217.721C5.234,217.721 9.479,213.477 9.479,208.242L9.479,76.228L9.477,74.573C2.814,71.547 -1.747,64.704 -1.413,56.837C-1.011,47.357 6.747,39.545 16.226,39.085C26.909,38.566 35.734,47.075 35.734,57.645C35.734,66.077 30.118,73.198 22.423,75.469L22.422,76.972L22.422,139.159L47.987,139.159C47.987,122.371 52.838,105.767 62.766,92.229C70.234,82.044 74.369,69.269 73.578,55.506C71.968,27.464 49.517,4.583 21.506,2.485C-11.665,0 -39.37,26.181 -39.37,58.844C-39.37,70.884 -35.6,82.053 -29.174,91.226C-19.338,105.266 -13.666,121.795 -13.666,138.938L-13.666,161.115C-13.666,162.755 -12.336,164.084 -10.697,164.084L41.309,164.084C43.205,164.084 44.616,165.838 44.209,167.691C43.299,171.83 39.631,174.781 35.393,174.781L0.142,174.781C-4.189,174.781 -7.384,178.825 -6.382,183.037C-6.063,184.375 -4.868,185.32 -3.493,185.32L36.596,185.32C38.445,185.32 39.845,186.992 39.519,188.812C38.758,193.071 35.053,196.172 30.726,196.172L5.293,196.172C0.736,196.172 -2.513,200.595 -1.15,204.944L-1.149,204.944C-0.762,206.182 0.386,207.025 1.684,207.025L32.048,207.025C33.568,207.025 34.802,208.258 34.802,209.78L34.802,210.209C34.802,210.658 34.841,211.097 34.916,211.524C35.072,212.404 35.381,213.232 35.814,213.978L47.815,217.721" style="fill:none;fill-rule:nonzero;stroke:rgb(117,243,255);stroke-width:8.5px;"/>
        </g>
        <g transform="matrix(0.00564285,-0.999984,-0.999984,-0.00564285,205.826,341.632)">
            <ellipse cx="-7.088" cy="0.04" rx="7.088" ry="7.089" style="fill:none;stroke:rgb(107,188,232);stroke-width:5.89px;"/>
        </g>
        <g transform="matrix(0.999984,0.00563852,0.00563852,-0.999984,184.492,322.231)">
            <path d="M0.033,-0.12C11.844,11.692 30.962,11.692 42.774,-0.12" style="fill:none;fill-rule:nonzero;stroke:rgb(131,178,255);stroke-width:14.73px;"/>
        </g>
        <g transform="matrix(0.999984,0.0056304,0.0056304,-0.999984,167.657,299.214)">
            <path d="M0.059,-0.217C21.411,21.134 55.967,21.135 77.318,-0.217" style="fill:none;fill-rule:nonzero;stroke:rgb(107,122,232);stroke-width:14.73px;"/>
        </g>
        <g opacity="0.7">
            <g transform="matrix(0.999984,0.00563339,0.00563339,-0.999984,148.823,275.333)">
                <path d="M0.088,-0.322C31.73,31.321 82.94,31.321 114.584,-0.322" style="fill:none;fill-rule:nonzero;stroke:rgb(138,117,255);stroke-width:14.73px;"/>
            </g>
        </g>
    </g>
</svg>
