<?xml version="1.0" encoding="UTF-8" standalone="no"?>
<!DOCTYPE svg PUBLIC "-//W3C//DTD SVG 1.1//EN" "http://www.w3.org/Graphics/SVG/1.1/DTD/svg11.dtd">
<svg width="100%" height="100%" viewBox="0 0 2505 2609" version="1.1" xmlns="http://www.w3.org/2000/svg" xmlns:xlink="http://www.w3.org/1999/xlink" xml:space="preserve" xmlns:serif="http://www.serif.com/" style="fill-rule:evenodd;clip-rule:evenodd;stroke-linejoin:round;stroke-miterlimit:2;">
    <g transform="matrix(1,0,0,1,-1247.66,-971.351)">
        <g transform="matrix(1,0,0,1,2379.84,2770.8)">
            <path d="M0,-1000.18C11.854,-987.37 23.631,-995.315 33.924,-1004.45C75.861,-947.749 80.678,-853.057 25.988,-803.899C2.74,-820.593 -21.408,-836.062 -43.285,-854.261C-59.401,-867.667 -58.431,-888.107 -55.66,-907.164C-54.362,-916.091 -47.982,-924.747 -48.375,-933.322C-48.777,-942.077 -54.657,-950.582 -58.139,-959.196C-66.83,-955.612 -80.879,-954.092 -83.207,-948.054C-90.113,-930.133 -92.416,-910.436 -96.48,-891.426C-97.013,-888.935 -97.328,-886.399 -98.05,-882.03C-119.199,-887.921 -139.726,-893.494 -160.162,-899.382C-174.281,-903.45 -187.489,-903.173 -191.64,-886.461C-195.896,-869.326 -183.3,-864.038 -169.427,-860.688C-108.69,-846.018 -52.849,-821.05 -7.726,-776.957C57.896,-712.835 68.61,-634.222 48.416,-548.588C45.137,-534.687 40.555,-521.093 35.86,-504.889C25.631,-512.248 17.049,-518.788 8.096,-524.774C-3.555,-532.562 -16.497,-538.077 -26.072,-523.286C-35.375,-508.916 -26.126,-499.805 -14.138,-491.307C34.542,-456.798 66.443,-412.578 60.415,-349.62C56.695,-310.774 37.9,-277.663 15.29,-246.652C12.21,-242.428 8.919,-238.361 5.731,-234.217C-1.698,-224.563 -3.202,-212.756 7.037,-206.75C13.889,-202.73 25.39,-206.348 34.761,-207.137C36.752,-207.305 38.528,-210.029 40.567,-211.711C78.565,-132.302 73.696,-29.223 10.542,31.199C0.441,40.863 -5.524,51.77 5.421,63.427C16.224,74.931 27.715,70.881 37.762,60.524C39.83,58.392 42.62,56.962 47.746,53.302C53.767,116.89 56.243,177.062 23.636,232.565C6.967,260.938 -17.974,279.252 -49.944,287.21C-154.118,313.139 -253.626,274.105 -284.514,165.014C-288.174,152.089 -295.531,143.434 -309.994,147.756C-325.709,152.452 -326.448,165.228 -322.236,178.098C-296.606,256.412 -246.977,309.91 -164.562,329.007C-157.644,330.61 -150.699,332.097 -141.636,334.112C-171.099,384.435 -209.587,418.374 -267.971,424.947C-283.17,426.658 -302.002,423.943 -301.251,447.754C-300.796,462.166 -287.688,467.712 -263.452,464.721C-189.657,455.612 -139.075,413.83 -105.251,350.012C-98.858,337.95 -91.929,333.644 -78.677,332.593C-27.939,328.567 15.945,309.447 49.405,266.454C65.348,297.488 67.559,326.401 53.337,355.062C47.209,367.412 47.152,377.837 51.512,390.358C64.516,427.709 72.833,465.852 65.703,505.776C61.179,531.108 50.558,553.212 29.623,568.883C18.445,577.252 10.21,586.254 19.663,599.65C29.715,613.895 42.129,609.152 53.765,600.617C57.907,597.578 61.965,594.425 66.199,591.22C101.985,668.912 56.08,758.077 -26.965,767.564C-131.919,779.554 -220.324,742.009 -296.318,668.306C-286.053,658.504 -274.805,650.881 -268.245,640.34C-264.25,633.92 -264.001,619.743 -268.433,615.014C-272.932,610.214 -289.237,608.583 -293.543,612.702C-346.886,663.724 -402.513,646.462 -458.825,620.331C-464.736,617.587 -470.327,614.135 -475.964,610.837C-476.966,610.252 -477.463,608.804 -478.194,607.754C-464.038,580.962 -470.427,571.025 -501.39,568.501C-582.042,561.923 -657.288,540.003 -717.864,483.358C-737.514,464.984 -752.687,441.823 -769.909,420.851C-768.421,418.891 -766.934,416.931 -765.447,414.971C-758.646,417.333 -751.895,419.853 -745.032,422.021C-732.75,425.902 -720.71,426.239 -715.514,411.929C-710.081,396.968 -718.776,389.013 -732.277,384.188C-787.126,364.582 -837.081,336.403 -878.156,294.775C-913.815,258.636 -939.829,216.083 -952.097,164.521C-942.477,173.362 -932.237,181.625 -923.354,191.152C-898.254,218.075 -875.813,246.822 -864.263,282.622C-860.305,294.892 -853.165,304.395 -838.437,299.302C-824.312,294.417 -822.763,282.937 -826.923,270.327C-845.138,215.116 -880.014,171.508 -924.816,136.111C-961.783,106.904 -999.988,79.638 -1026.89,39.741C-1085.71,-47.47 -1078.3,-137.507 -1005.14,-215.916C-1002.02,-219.262 -998.761,-222.485 -995.493,-225.688C-986.558,-234.445 -985.557,-244.473 -993.541,-253.618C-1002.48,-263.858 -1013.76,-262.93 -1022.94,-254.001C-1035.93,-241.365 -1047.8,-227.573 -1060.15,-214.264C-1096.78,-252.636 -1102.46,-332.748 -1075.48,-371.958C-1071.78,-366.285 -1068.1,-361.14 -1064.92,-355.708C-1057.35,-342.775 -1048,-331.982 -1032.07,-341.862C-1016.88,-351.282 -1022.51,-364.193 -1030.13,-375.928C-1060.82,-423.223 -1071.87,-475.528 -1069.15,-531.092C-1065.74,-601.109 -1033.57,-660.001 -995.631,-716.371C-986.254,-730.304 -975.225,-743.126 -963.361,-758.528C-960.269,-752.132 -959.408,-746.475 -956.378,-744.842C-948.582,-740.642 -937.945,-733.793 -931.975,-736.326C-925.888,-738.909 -920.247,-751.798 -921.031,-759.501C-922.997,-778.829 -930.287,-797.585 -932.618,-816.912C-940.234,-880.05 -919.414,-933.743 -874.851,-981.012C-868.21,-973.301 -862.167,-966.285 -857.586,-960.966C-869.813,-947.439 -883.799,-936.383 -891.878,-922.006C-904.429,-899.673 -914.28,-875.505 -922.121,-851.101C-923.762,-845.992 -912.958,-832.865 -905.521,-830.302C-900.738,-828.654 -886.393,-838.65 -885.295,-844.98C-877.172,-891.836 -844.908,-918.079 -807.819,-940.749C-753.659,-973.854 -729.401,-1022.68 -730.889,-1085.36C-731.231,-1099.81 -734.612,-1112.97 -751.952,-1112.22C-769.263,-1111.47 -771.085,-1098.29 -770.561,-1083.72C-769.051,-1041.83 -783.794,-1007.31 -817.867,-982.006C-851.916,-1005.05 -857.86,-1031.19 -835.367,-1063.59C-805.968,-1105.93 -788.473,-1151.8 -784.675,-1203.66C-783.116,-1224.95 -774.688,-1245.75 -769.384,-1266.77C-767.101,-1266.56 -764.818,-1266.36 -762.535,-1266.15C-758.611,-1257.5 -754.889,-1248.74 -750.729,-1240.2C-730.075,-1197.81 -699.441,-1164.89 -658.003,-1141.99C-652.858,-1139.14 -647.316,-1134.28 -645.27,-1129.05C-636.511,-1106.68 -628.993,-1083.83 -621.812,-1063.41C-642.749,-1038.69 -665.942,-1014.73 -685.034,-987.851C-705.466,-959.085 -710.397,-925.807 -704.167,-890.375C-702.588,-881.392 -706.837,-866.27 -713.562,-861.897C-734.004,-848.608 -756.448,-837.906 -779.149,-828.774C-792.081,-823.572 -803.144,-818.787 -799.665,-803.317C-796.132,-787.611 -783.351,-786.292 -769.966,-789.65C-736.585,-798.024 -705.781,-811.58 -679.393,-837.484C-643.484,-792.44 -594.084,-774.144 -543.925,-765.87C-551.123,-736.965 -558.803,-709.503 -564.549,-681.643C-567.484,-667.41 -565.215,-652.533 -546.244,-651.309C-528.418,-650.158 -525.724,-663.413 -524.878,-677.654C-520.128,-757.651 -462.512,-796.198 -391.407,-802.857C-387.652,-803.209 -381.725,-801.125 -379.912,-798.232C-362.201,-769.955 -335.791,-754.509 -302.457,-745.865C-306.362,-739.385 -310.058,-734.389 -312.586,-728.859C-322.585,-706.982 -333.13,-685.282 -341.622,-662.817C-346.162,-650.807 -340.089,-638.548 -327.373,-637.831C-319.806,-637.405 -310.184,-645.846 -304.255,-652.696C-299.546,-658.139 -299.588,-667.448 -296.581,-674.647C-267.905,-743.284 -212.945,-775.465 -142.126,-785.334C-133.07,-786.597 -123.894,-786.974 -114.799,-787.987C-102.808,-789.324 -95.06,-795.353 -95.514,-808.19C-96.007,-822.122 -104.992,-827.878 -117.761,-827.342C-162.762,-825.453 -205.669,-815.691 -245.089,-792.809C-290.358,-766.532 -351.792,-797.594 -354.858,-849.934C-359.548,-929.993 -317.968,-984.594 -252.847,-1024.58C-245.091,-1029.34 -236.558,-1032.87 -228.267,-1036.72C-216.667,-1042.1 -209.965,-1050.61 -215.25,-1063.23C-220.844,-1076.59 -232.185,-1078.7 -244.716,-1073.14C-256.555,-1067.88 -268.033,-1061.82 -279.625,-1056.13C-344.843,-1164.02 -345.273,-1305.17 -240.627,-1388.06C-229.253,-1397.07 -223.319,-1407.28 -232.894,-1419.61C-242.731,-1432.27 -254.831,-1428.56 -265.352,-1419.2C-277.539,-1408.37 -289.316,-1397.08 -301.322,-1385.94C-340.373,-1398.11 -375.666,-1438.06 -378.965,-1473.17C-380.099,-1485.25 -376.637,-1493.11 -366.814,-1501.51C-346.09,-1519.22 -324.669,-1537.36 -308.667,-1559.1C-272.227,-1608.62 -290.494,-1670.99 -346.291,-1697.04C-357.937,-1702.48 -368.587,-1701.94 -375.143,-1690.1C-381.679,-1678.3 -376.722,-1669.19 -365.733,-1662.08C-357.582,-1656.81 -349.362,-1651.06 -342.837,-1643.98C-326.974,-1626.78 -323.844,-1607.65 -337.335,-1588.52C-349.968,-1570.61 -365.222,-1553.83 -381.981,-1539.7C-414.061,-1512.66 -414.844,-1513.59 -421.248,-1472.77C-459.538,-1478.64 -496.996,-1479.44 -531.799,-1463.43C-552.881,-1453.73 -572.301,-1440.04 -591.484,-1426.73C-602.727,-1418.92 -608.061,-1406.75 -597.137,-1394.84C-586.271,-1383.01 -575.314,-1388.16 -564.709,-1397.45C-522.004,-1434.84 -473.067,-1445.36 -418.564,-1429.92C-413.732,-1428.55 -408.213,-1426.78 -404.888,-1423.37C-380.158,-1398.01 -355.903,-1372.19 -330.557,-1345.53C-337.898,-1326.14 -346.545,-1301.67 -356.699,-1277.85C-358.758,-1273.02 -366.055,-1268.77 -371.703,-1267.39C-400.091,-1260.46 -429.917,-1257.72 -457,-1247.55C-494.725,-1233.38 -520.69,-1205.27 -532.247,-1165.29C-536.333,-1151.16 -534.264,-1139.56 -519.237,-1135.64C-505.278,-1132.01 -497.919,-1140.49 -494.47,-1154.04C-488.882,-1176 -475.037,-1192.2 -456.062,-1204.15C-428.665,-1221.4 -398.172,-1225.76 -364.445,-1227.54C-366.298,-1156.09 -346.488,-1091.86 -313.912,-1030.76C-370.205,-980.657 -399.009,-919.496 -396.037,-846.399C-423.204,-837.561 -451.89,-833.598 -474.26,-819.566C-501.046,-802.764 -526.245,-802.386 -554.174,-808.78C-587.908,-816.502 -619.062,-829.162 -642.186,-856.426C-669.617,-888.769 -675.547,-925.56 -653.594,-961.633C-638.344,-986.691 -616.819,-1007.93 -597.198,-1031.98C-588.449,-1023.65 -584.429,-1016.72 -579.016,-1015.37C-570.142,-1013.15 -560.362,-1014.55 -550.964,-1014.42C-551.036,-1023.86 -548.931,-1034.05 -551.837,-1042.51C-554.375,-1049.91 -562.765,-1055.19 -568.211,-1061.71C-620.037,-1123.71 -620.789,-1193.63 -570.214,-1256.54C-564.496,-1263.65 -558.014,-1270.17 -551.728,-1276.81C-543.215,-1285.81 -541.972,-1295.7 -550.388,-1304.74C-559.591,-1314.62 -570.349,-1313.39 -579.833,-1304.59C-606.17,-1280.15 -625.716,-1251.1 -637.4,-1217.02C-640.967,-1206.62 -643.752,-1195.94 -646.912,-1185.34C-702.291,-1211.75 -757.729,-1294.91 -701.217,-1375.73C-700.433,-1370.93 -701.092,-1366.21 -699.102,-1364.39C-692.541,-1358.39 -684.542,-1348.75 -678.007,-1349.42C-671.527,-1350.08 -662.366,-1360.85 -660.998,-1368.39C-656.815,-1391.44 -657.398,-1415.34 -653.304,-1438.41C-635.115,-1540.91 -565.461,-1598.35 -461.62,-1597.74C-457.043,-1597.71 -451.223,-1595.91 -448.145,-1598.05C-441.321,-1602.8 -430.757,-1609.86 -431.123,-1615.35C-431.61,-1622.67 -439.806,-1633.2 -446.901,-1635.49C-457.544,-1638.91 -470.108,-1636.38 -488.763,-1636.38C-475.874,-1650.53 -467.743,-1661.86 -457.363,-1670.48C-365.631,-1746.65 -260.033,-1771.54 -143.542,-1752.39C-95.849,-1744.55 -50.955,-1728.54 -15.074,-1694.18C11.374,-1668.85 26.813,-1638.2 27.43,-1602.44C-2.938,-1600.87 -31.864,-1599.82 -60.711,-1597.7C-75.26,-1596.63 -87.055,-1589.96 -83.772,-1572.88C-80.363,-1555.14 -66.356,-1556.34 -52.685,-1558.91C-46.91,-1560 -41.156,-1561.41 -35.325,-1561.97C48.17,-1569.93 94.765,-1516.91 80.412,-1430.4C74.97,-1397.6 60.011,-1369.36 35.562,-1346.47C32.151,-1348.83 28.52,-1353.46 24.959,-1353.4C16.169,-1353.27 3.689,-1353.9 -0.315,-1348.76C-4.346,-1343.6 -2.768,-1330.08 1.409,-1323.37C8.516,-1311.96 20.442,-1303.69 28.85,-1292.92C86.167,-1219.56 87.943,-1145.17 34.3,-1069.05C26.04,-1057.33 16.703,-1046.29 7.125,-1035.6C-2.466,-1024.89 -12.781,-1014 0,-1000.18M107.327,-1221.05C98.727,-1253.91 81.804,-1284.59 69.18,-1314.93C86.357,-1346.23 104.702,-1385.94 119.851,-1413.63C119.99,-1415.28 119.854,-1417.01 119.926,-1418.55C120.11,-1422.5 120.301,-1426.44 120.297,-1430.4C120.291,-1438.43 119.793,-1446.46 119.124,-1454.47C119.113,-1454.59 119.145,-1454.68 119.19,-1454.77C117.655,-1465.39 118.293,-1487.49 116.562,-1493.05C112.788,-1505.18 107.416,-1533.27 100.384,-1540.52C73.844,-1567.88 68.756,-1600.85 61.417,-1635.91C45.448,-1712.19 -10.12,-1754.05 -80.163,-1776.88C-205.443,-1817.73 -325.511,-1802.89 -437.895,-1734.38C-478.092,-1709.88 -515.154,-1680.71 -532.229,-1633.5C-533.579,-1629.76 -539.898,-1626.93 -544.482,-1625.4C-616.253,-1601.42 -660.741,-1551.41 -684.455,-1480.8C-687.859,-1470.66 -693.655,-1460.83 -700.259,-1452.35C-729.895,-1414.29 -754.221,-1373.83 -763.275,-1325.55C-764.127,-1321.01 -767.149,-1315.42 -770.889,-1313.1C-807.388,-1290.45 -821.121,-1254.5 -823.56,-1215.05C-826.66,-1164.89 -843.606,-1121.3 -871.591,-1080.37C-880.058,-1067.99 -882.572,-1051.62 -888.327,-1037.28C-891.967,-1028.21 -894.632,-1017.68 -901.046,-1010.97C-936.769,-973.588 -962.028,-930.801 -970.144,-879.423C-974.157,-854.011 -969.27,-825.765 -978.652,-803.026C-988.18,-779.934 -1011.69,-763.007 -1026.69,-741.706C-1092.89,-647.747 -1129.87,-546.771 -1098.57,-430.001C-1097.05,-424.329 -1100.47,-416.413 -1103.54,-410.57C-1144.01,-333.671 -1142.84,-258.859 -1092.02,-186.992C-1084.89,-176.919 -1085.05,-169.375 -1089.61,-158.818C-1103.82,-125.853 -1110.17,-91.324 -1105.18,-55.428C-1096.01,10.561 -1064.88,65.192 -1018.48,112.13C-1012.1,118.59 -1006.77,127.845 -1004.81,136.666C-981.701,240.144 -924.748,319.587 -836.801,377.935C-828.897,383.178 -821.749,392.365 -818.458,401.274C-803.46,441.879 -781.303,477.581 -750.127,507.535C-697.979,557.638 -633.939,583.917 -564.604,599.471C-558.984,600.733 -552.769,601.708 -548.179,604.81C-520.913,623.245 -495.373,644.678 -466.699,660.465C-432.639,679.218 -394.799,689.383 -355.327,684.904C-341.13,683.293 -333.121,687.227 -323.571,696.837C-241.918,778.992 -143.372,817.541 -27.34,807.768C56.372,800.716 109.276,747.935 112.38,664.172C113.766,626.762 106.065,589.014 102.476,551.42C101.864,545.005 99.241,538.048 100.858,532.268C114.837,482.298 106.86,433.86 92.526,385.568C90.823,379.828 90.399,372.47 92.472,367.043C110.15,320.751 104.012,277.418 78.576,235.711C75.591,230.816 73.558,223.057 75.21,217.965C97.068,150.621 95.117,82.841 80.755,14.578C79.761,9.853 79.794,3.963 81.742,-0.288C117.933,-79.261 106.845,-157.231 76.116,-234.3C70.534,-248.301 70.268,-258.685 77.218,-272.294C109.583,-335.666 110.414,-398.644 72.435,-460.819C68.625,-467.057 68.648,-478.076 71.194,-485.375C92.371,-546.103 105.934,-608.161 91.818,-671.908C84.204,-706.291 68.397,-738.86 55.95,-773.178C64.401,-785.714 76.312,-799.966 84.495,-816.108C120.767,-887.658 107.748,-957.002 71.479,-1024.02C64.78,-1036.39 65.579,-1044.13 72.984,-1055.26C106.567,-1105.76 122.968,-1161.29 107.327,-1221.05" />
        </g>
        <g transform="matrix(1,0,0,1,1818.24,2989.15)">
            <path d="M0,-497.06C-10.091,-520.787 -24.443,-512.74 -39.923,-505.419C-33.529,-494.573 -27.789,-484.836 -21.146,-473.568C-13.215,-482.379 -6.447,-489.897 0,-497.06M-208.628,-619.827C-176.941,-586.549 -144.935,-559.975 -103.348,-548.511C-54.988,-535.182 -14.417,-550.818 18.955,-586.479C28.945,-597.155 39.35,-605.642 52.164,-594.618C66.106,-582.623 58.552,-569.797 48.245,-559.091C40.585,-551.135 32.257,-543.822 22.871,-534.939C49.106,-505.048 82.851,-489.714 120.226,-481.429C182.201,-467.692 243.705,-474.141 304.91,-487.322C308.742,-488.147 312.668,-488.756 316.338,-490.062C329.903,-494.891 342.055,-493.437 346.734,-478.465C352.054,-461.444 339.807,-454.212 326.021,-451.685C292.024,-445.451 257.981,-438.165 223.629,-435.457C160.233,-430.461 98.31,-437.057 40.947,-468.465C36.854,-470.706 26.269,-466.576 22.025,-462.192C-14.331,-424.631 -27.416,-378.499 -24.226,-327.334C-20.683,-270.498 3.684,-220.474 29.001,-170.957C30.764,-167.511 35.898,-165.306 39.917,-163.566C137.75,-121.192 184.298,-42.486 194.054,59.694C199.971,121.668 166.102,163.761 105.182,176.981C62.98,186.138 20.738,183.542 -21.296,174.644C-34.827,171.78 -43.241,164.594 -40.086,150.185C-36.881,135.548 -25.769,134.887 -12.535,135.677C22.446,137.761 58.029,142.389 92.444,138.26C140.222,132.528 160.275,101.002 154.241,53.176C139.544,-63.317 54.137,-142.532 -64.31,-149.535C-70.831,-149.919 -77.343,-150.543 -83.869,-150.723C-96.777,-151.08 -106.108,-156.707 -106.064,-170.206C-106.018,-184.731 -95.972,-190.939 -82.389,-190.228C-63.594,-189.245 -44.852,-187.252 -25.292,-185.625C-34.749,-212.368 -44.925,-238.169 -52.986,-264.616C-65.787,-306.615 -67.209,-349.538 -58.822,-392.622C-46.448,-456.183 -61.351,-488.051 -121.313,-511.646C-170.92,-531.167 -210.184,-562.926 -246.18,-600.729C-252.313,-607.171 -263.545,-611.894 -272.481,-611.992C-312.883,-612.432 -351.961,-617.935 -388.723,-635.456C-401.635,-641.609 -415.009,-649.508 -406.849,-666.488C-398.818,-683.198 -385.473,-678.313 -371.772,-671.729C-316.918,-645.368 -260.259,-648.657 -203.184,-663.138C-196.857,-664.743 -190.726,-667.114 -184.401,-668.732C-172.604,-671.75 -163.124,-668.326 -159.297,-656.354C-155.186,-643.489 -161.119,-634.899 -173.672,-630.811C-184.081,-627.421 -194.558,-624.238 -208.628,-619.827" />
        </g>
        <g transform="matrix(1,0,0,1,1658.46,2359.02)">
            <path d="M0,-254.609C0,-281.7 -0.753,-306.444 0.304,-331.112C0.869,-344.287 6.249,-356.519 22.992,-354.267C40.555,-351.905 41.05,-339.142 39.792,-324.698C38.269,-307.21 36.198,-289.254 38.463,-272.04C48.494,-195.809 94.41,-155.727 177.388,-150.063C197.535,-148.688 217.901,-149.914 238.138,-150.686C251.722,-151.205 262.476,-147.317 263.456,-132.674C264.424,-118.202 254.328,-112.124 240.94,-111.049C233.793,-110.476 226.629,-110.109 213.098,-109.239C223.964,-99.136 230.768,-91.112 239.126,-85.339C272.595,-62.22 309.521,-63.333 346.482,-73.482C369.028,-79.672 391.21,-87.925 412.616,-97.379C465.17,-120.588 519.485,-125.912 575.704,-116.809C579.555,-116.186 583.415,-115.607 587.284,-115.12C587.787,-115.057 588.375,-115.673 589.831,-116.474C592.884,-132.338 595.358,-149.046 599.461,-165.343C602.946,-179.182 610.825,-190.302 627.408,-184.762C642.764,-179.632 641.299,-168.104 637.991,-154.283C623.239,-92.665 629.466,-34.743 672.694,15.179C681.407,25.241 685.915,35.818 675.287,46.223C663.767,57.5 652.513,52.226 642.949,42.105C637.21,36.033 631.959,29.5 627.355,24.176C611.381,43.666 596.153,62.69 580.338,81.215C576.632,85.557 571.094,88.444 566.136,91.585C554.494,98.96 541.828,101.91 533.422,88.559C524.53,74.438 532.163,65.196 545.607,57.23C583.729,34.643 605.996,-21.44 594.091,-63.295C592.817,-67.772 587.688,-73.474 583.41,-74.437C480.192,-97.663 386.124,-61.667 333.458,30.461C329.319,37.701 325.977,45.86 324.416,54.005C321.912,67.075 315.233,74.794 301.96,72.998C287.422,71.03 280.953,59.272 285.307,47.079C292.683,26.423 303.563,7.003 313.226,-12.811C315.389,-17.245 318.609,-21.163 322.056,-26.402C303.885,-27.638 287.58,-27.345 271.804,-30.091C229.6,-37.436 196.604,-59.614 175.025,-96.776C168.659,-107.738 160.859,-112.173 149.054,-113.908C95.357,-121.8 52.542,-146.305 21.422,-192.54C13.513,-204.291 -4.687,-211.681 -19.602,-215.656C-59.767,-226.363 -98.581,-215.986 -136.551,-202.431C-142.086,-200.454 -147.519,-198.153 -152.891,-195.76C-165.232,-190.261 -176.604,-190.49 -182.677,-204.163C-188.738,-217.806 -181.211,-226.639 -169.004,-231.987C-120.295,-253.326 -70.148,-265.793 -16.493,-256.198C-12.043,-255.402 -7.469,-255.306 0,-254.609" />
        </g>
        <g transform="matrix(1,0,0,1,1469.64,2733.15)">
            <path d="M0,20.514C8.083,-16.222 14.204,-51.586 23.886,-85.945C33.733,-120.891 52.097,-151.794 84.898,-180.35C57.25,-192.682 33.656,-204.519 9.062,-213.662C-4.756,-218.798 -16.293,-223.901 -11.848,-240.495C-7.606,-256.333 5.782,-256.17 18.595,-252.645C89.289,-233.197 140.506,-188.955 175.584,-125.813C178.989,-119.685 174.996,-104.789 169.296,-99.36C160.863,-91.328 149.789,-95.542 142.713,-105.756C132.797,-120.07 122.819,-134.341 109.633,-153.277C95.838,-134.065 82.62,-119.558 73.889,-102.725C52.464,-61.417 45.89,-16.02 42.693,29.836C42.374,34.426 43.999,41.336 47.23,43.625C65.13,56.3 83.808,67.876 100.5,78.713C107.858,54.94 113.427,30.806 123.015,8.391C128.354,-4.094 139.077,-15.417 150.016,-23.827C154.635,-27.378 169.166,-24.86 173.51,-20.011C177.792,-15.232 178.413,-1.637 174.599,4.009C133.154,65.361 132.598,123.12 176.934,182.367C190.778,200.866 208.782,216.466 226.042,232.115C236.433,241.535 243.841,250.88 234.502,263.718C224.952,276.847 212.691,273.452 202.125,264.4C171.287,237.974 140.295,211.006 124.396,172.551C113.889,147.135 95.976,129.074 75.891,112.349C38.241,80.996 -4.523,58.894 -51.681,45.832C-65.811,41.918 -77.926,36.449 -74.243,20.07C-70.09,1.601 -54.896,3.544 -40.932,7.466C-27.155,11.335 -13.636,16.126 0,20.514" />
        </g>
        <g transform="matrix(1,0,0,1,2152.77,2847.65)">
            <path d="M0,-153.297C-32.2,-98.496 -77.552,-70.271 -132.668,-55.948C-135.191,-55.293 -137.695,-54.459 -140.263,-54.089C-153.997,-52.108 -169.787,-48.489 -173.959,-67.139C-178.367,-86.838 -163.268,-90.016 -148.147,-93.444C-106.294,-102.933 -68.143,-120.277 -44.837,-158.193C-34.912,-174.342 -31.974,-194.657 -24.553,-212.535C-21.609,-219.625 -16.259,-228.082 -9.884,-230.649C-4.583,-232.782 6.566,-229.435 10.428,-224.691C47.491,-179.165 98.463,-161.378 153.295,-150.674C158.421,-149.673 163.549,-148.673 168.689,-147.748C181.928,-145.367 190.16,-136.525 185.307,-124.532C182.421,-117.401 169.557,-108.558 162.802,-109.742C134.022,-114.785 105.742,-122.903 77.509,-130.725C67.582,-133.475 58.31,-138.589 46.23,-143.682C51.826,-120.665 58.64,-99.762 61.744,-78.321C67.343,-39.641 70.828,-0.65 74.917,38.241C75.525,44.028 74.837,49.993 74.368,55.845C73.307,69.059 67.753,79.485 52.985,78.404C38.628,77.352 35.438,66.838 34.141,53.421C29.382,4.203 24.112,-45.005 17.173,-93.952C14.553,-112.428 6.87,-130.185 0,-153.297" />
        </g>
        <g transform="matrix(1,0,0,1,2187.25,1217.32)">
            <path d="M0,48.471C1.255,29.356 0.312,10.179 4.105,-8.009C17.505,-72.262 61.963,-108.136 120.871,-128.229C127.25,-130.405 140.9,-122.844 144.972,-116.07C147.612,-111.676 140.286,-99.458 134.928,-92.737C131.354,-88.254 123.352,-87.346 117.385,-84.717C29.984,-46.204 28.804,32.893 56.718,95.454C65.028,114.078 69.116,134.888 72.914,155.114C75.419,168.457 67.899,178.711 53.449,178.797C40.175,178.876 34.974,169.814 33.693,156.812C29.023,109.384 8.173,88.555 -39.076,82.971C-44.251,82.36 -50.751,84.249 -54.46,81.749C-62.099,76.6 -72.7,70.072 -74.045,62.653C-76.31,50.16 -66.413,42.196 -53.178,43.026C-35.734,44.12 -18.372,46.526 0,48.471" />
        </g>
        <g transform="matrix(1,0,0,1,2282.21,1703.01)">
            <path d="M0,-177.91C8.806,-196.503 17.081,-215.594 26.791,-233.924C33.629,-246.836 44.558,-257.822 59.881,-248.518C75.685,-238.923 68.927,-225.915 61.018,-213.078C39.444,-178.064 30.347,-139.893 37.105,-98.959C47.083,-38.527 27.376,14.348 -3.292,64.533C-10.151,75.756 -22.178,79.912 -31.355,71.065C-36.875,65.743 -39.174,51.905 -36.459,44.158C-27.023,17.234 -11.134,-7.801 -4.344,-35.202C9.392,-90.625 -8.71,-136.775 -54.922,-171.187C-57.537,-173.135 -60.352,-174.811 -63.022,-176.686C-73.717,-184.193 -77.432,-194.193 -70.037,-205.335C-62.489,-216.707 -51.139,-216.69 -40.843,-209.447C-26.529,-199.376 -13.07,-188.089 0,-177.91" />
        </g>
        <g transform="matrix(1,0,0,1,2273.82,3363.12)">
            <path d="M0,-38.757C0.964,-49.421 1.365,-62.435 3.505,-75.156C5.682,-88.1 13.174,-97.403 27.685,-95.028C42.649,-92.577 45.506,-81.695 42.609,-68.375C35.946,-37.733 49.155,-12.198 63.668,12.94C67.256,19.154 73.879,24.715 74.708,31.143C75.736,39.122 74.779,52.097 69.982,54.914C63.626,58.646 48.312,58.197 44.449,53.41C0.2,-1.43 -61.527,-20.072 -126.694,-32.34C-140.096,-34.863 -148.862,-41.895 -146.25,-56.402C-143.808,-69.969 -133.133,-74.524 -120.979,-71.41C-80.785,-61.115 -40.837,-49.86 0,-38.757" />
        </g>
        <g transform="matrix(1,0,0,1,1970.92,3284.23)">
            <path d="M0,-20.225C-9.445,4.049 1.42,23.222 18.281,42.155C22.531,46.927 21.512,62.585 16.874,67.31C12.382,71.885 -2.443,72.504 -8.273,68.45C-27.731,54.919 -39.376,34.755 -41.886,10.966C-43.132,-0.85 -48.963,-3.671 -58.742,-8.436C-83.023,-20.268 -106.417,-34.363 -128.687,-49.696C-139.636,-57.234 -143.853,-70.746 -131.98,-81.823C-120.291,-92.729 -109.577,-87.176 -99.847,-76.848C-79.156,-54.884 -53.448,-43.493 -23.281,-42.507C-9.589,-42.06 -0.774,-36.634 0,-20.225" />
        </g>
        <g transform="matrix(1,0,0,1,3123.9,3064.66)">
            <path d="M0,-708.334C-0.1,-717.298 -7.842,-724.699 -16.457,-725.423C-24.437,-726.094 -32.909,-714.795 -32.47,-707.793C-31.949,-699.484 -24.809,-692.53 -16.479,-692.715C-6.795,-692.93 0.1,-699.465 0,-708.334M227.814,25.292C227.975,22.69 228.274,20.087 228.275,17.485C228.296,-40.638 228.352,-98.761 228.167,-156.884C228.15,-162.369 229.841,-166.22 233.715,-170.001C248.442,-184.373 262.78,-199.142 277.447,-213.577C290.896,-226.811 304.694,-239.69 318.113,-252.954C324.841,-259.602 330.971,-266.851 337.544,-273.662C344.396,-280.762 351.193,-287.957 358.521,-294.545C363.372,-298.907 365.001,-303.586 364.983,-310.083C364.762,-389.406 364.841,-468.73 364.841,-548.053C364.841,-597.306 364.839,-646.559 364.837,-695.811L364.837,-704.376L356.551,-704.376C242.937,-704.377 129.324,-704.345 15.711,-704.489C10.587,-704.495 7.935,-703.478 5.703,-698.26C0.4,-685.855 -9.651,-681.335 -22.662,-683.932C-32.837,-685.962 -44.876,-702.633 -38.819,-717.175C-34.434,-727.707 -27.13,-733.376 -16.969,-733.496C-5.958,-733.626 1.52,-728.577 6.126,-717.877C6.872,-716.143 7.552,-714.38 8.43,-712.217C11.011,-712.217 13.609,-712.221 16.208,-712.216C93.139,-712.093 170.07,-711.906 247.002,-711.871C286.292,-711.853 325.584,-711.988 364.872,-712.361C370.843,-712.418 372.782,-710.607 372.776,-704.681C372.645,-570.835 372.606,-436.99 372.755,-303.144C372.764,-295.295 367.325,-291.232 363.072,-286.635C355.368,-278.308 346.562,-271.012 338.445,-263.052C326.299,-251.14 314.258,-239.119 302.344,-226.975C287.467,-211.811 272.791,-196.449 257.955,-181.245C255.65,-178.882 252.996,-176.852 250.43,-174.759C241.379,-167.382 235.632,-159.603 235.867,-146.207C236.869,-89.054 236.353,-31.876 236.39,25.292L227.814,25.292Z" />
        </g>
        <g transform="matrix(1,0,0,1,3107,3087.36)">
            <path d="M0,-670.215C-8.653,-670.14 -15.405,-663.508 -15.495,-654.995C-15.588,-646.306 -8.473,-639.305 0.406,-639.348C10.1,-639.395 16.941,-645.877 16.956,-655.028C16.971,-663.903 9.829,-670.299 0,-670.215M177.546,10.593C177.44,-0.354 177.25,-11.302 177.244,-22.25C177.211,-82.745 177.297,-143.24 177.114,-203.734C177.095,-210.308 178.55,-215.223 183.609,-219.976C201.257,-236.552 218.536,-253.532 235.642,-270.672C255.703,-290.775 275.431,-311.212 295.315,-331.491C298.743,-334.988 301.912,-338.843 305.768,-341.793C312.348,-346.828 313.502,-353.211 313.481,-361.095C313.243,-454.673 313.327,-548.253 313.327,-641.832L313.327,-650.502C310.674,-650.636 308.405,-650.851 306.136,-650.852C214.917,-650.863 123.699,-650.806 32.481,-650.975C27.221,-650.985 24.602,-649.737 22.561,-644.586C19.253,-636.238 13.243,-630.624 3.416,-629.901C-7.584,-629.09 -15.367,-633.235 -20.461,-642.989C-26.033,-653.66 -23.69,-663.468 -16.862,-672.298C-10.768,-680.18 -1.878,-680.808 7.204,-679.161C15.293,-677.694 20.054,-671.837 22.629,-664.814C24.628,-659.364 27.714,-658.693 32.727,-658.699C125.849,-658.823 218.972,-658.788 312.095,-658.766C321.509,-658.764 321.551,-658.703 321.553,-649.368C321.572,-550.549 321.48,-451.731 321.751,-352.914C321.776,-343.775 315.064,-339.686 310.444,-334.198C304.997,-327.726 297.965,-322.617 291.889,-316.642C279.233,-304.202 266.753,-291.583 254.206,-279.033C242.494,-267.318 230.791,-255.594 219.08,-243.879C209.393,-234.188 199.433,-224.749 190.178,-214.662C187.475,-211.716 185.383,-206.939 185.366,-202.992C185.076,-134.4 185.159,-65.807 185.133,2.785C185.132,5.388 184.846,7.991 184.692,10.593L177.546,10.593Z" />
        </g>
        <g transform="matrix(1,0,0,1,3107.21,3100.41)">
            <path d="M0,-603.362C-8.598,-603.388 -15.852,-596.021 -15.708,-587.409C-15.575,-579.433 -7.552,-570.863 -0.149,-570.789C8.294,-570.706 16.797,-579.217 16.78,-587.736C16.763,-596.515 9.44,-603.334 0,-603.362M108.725,9.542C108.702,-74.754 108.651,-159.05 108.788,-243.345C108.792,-246.092 109.973,-249.555 111.846,-251.47C128.382,-268.379 145.291,-284.924 161.905,-301.757C174.65,-314.67 186.947,-328.028 199.779,-340.851C213.307,-354.368 227.336,-367.383 240.879,-380.884C242.977,-382.975 244.802,-386.491 244.812,-389.354C245.023,-452.685 244.963,-516.016 244.937,-579.347C244.936,-580.498 244.721,-581.649 244.557,-583.304C242.067,-583.419 239.754,-583.617 237.44,-583.617C169.098,-583.628 100.756,-583.561 32.414,-583.727C27.312,-583.74 24.559,-582.777 22.391,-577.578C17.753,-566.452 9.189,-561.631 -1.623,-562.547C-19.054,-564.024 -29.332,-585.129 -20.307,-600.183C-15.148,-608.788 -8.311,-612.904 1.82,-612.629C12.326,-612.343 18.747,-606.615 22.355,-597.787C24.374,-592.849 26.941,-591.79 31.801,-591.8C101.572,-591.946 171.344,-591.901 241.115,-591.91C252.936,-591.911 252.963,-591.927 252.965,-580.186C252.975,-519.006 252.569,-457.821 253.317,-396.649C253.464,-384.75 249.693,-376.228 241.729,-368.612C234.031,-361.25 226.006,-354.219 218.485,-346.684C204.326,-332.497 190.524,-317.952 176.376,-303.753C169.187,-296.538 161.447,-289.875 154.169,-282.745C142.874,-271.677 131.629,-260.551 120.687,-249.139C118.617,-246.981 116.968,-243.376 116.961,-240.433C116.773,-158.042 116.82,-75.65 116.852,6.742C116.852,7.676 117.144,8.609 117.3,9.542L108.725,9.542Z" />
        </g>
        <g transform="matrix(1,0,0,1,3108.39,3050.06)">
            <path d="M0,-161.487C8.453,-161.566 15.343,-168.56 15.318,-177.038C15.287,-188.337 5.67,-196.699 -5.311,-193.204C-11.554,-191.216 -16.221,-185.747 -17.068,-179.25C-18.378,-169.213 -10.538,-161.387 0,-161.487M-321.685,41.073L-321.685,-180.977L-313.577,-180.977C-220.447,-180.981 -127.316,-181.015 -34.187,-180.921C-28.33,-180.915 -24.577,-181.176 -22.499,-188.523C-19.839,-197.925 -10.996,-201.259 -1.646,-201.907C7.778,-202.56 15.186,-198.534 19.916,-190.569C28.184,-176.649 21.473,-158.668 6.226,-152.854C-3.008,-149.334 -17.173,-155.765 -22.539,-165.996C-23.624,-168.064 -24.4,-170.296 -25.427,-172.707L-312.875,-172.707C-313.116,-171.176 -313.51,-169.846 -313.511,-168.515C-313.561,-93.011 -313.581,-37.946 -313.579,37.559C-313.579,38.73 -313.272,39.902 -313.109,41.073L-321.685,41.073Z" />
        </g>
        <g transform="matrix(1,0,0,1,3541.9,2797.89)">
            <path d="M0,-207.86C-0.135,-199.336 6.548,-192.242 14.968,-191.972C23.518,-191.699 32.012,-199.238 32.17,-207.241C32.342,-215.953 24.503,-224.259 15.913,-224.469C7.883,-224.665 0.139,-216.582 0,-207.86M11.74,26.964L11.556,-172.158C11.553,-175.475 11.556,-178.792 11.556,-182.457C1.713,-184.59 -4.196,-191.747 -7.955,-199.614C-15.285,-214.954 1.386,-234.824 17.831,-232.571C30.429,-230.845 38.381,-223.545 40.233,-211.325C41.924,-200.174 35.283,-188.226 24.153,-184.458C18.951,-182.696 19.383,-179.54 19.384,-175.735C19.395,-111.245 19.39,-46.756 19.355,17.735C19.354,20.811 19.05,23.887 18.887,26.964L11.74,26.964Z" />
        </g>
        <g transform="matrix(1,0,0,1,3617.97,2740.88)">
            <path d="M0,-84.544C8.406,-84.64 17.107,-92.898 16.823,-100.51C16.509,-108.924 8.246,-116.767 -0.33,-116.79C-9.476,-116.815 -15.856,-109.958 -15.815,-100.15C-15.777,-91.285 -8.844,-84.442 0,-84.544M-4.402,45.341C-4.404,7.229 -4.489,-30.883 -4.311,-68.993C-4.287,-73.997 -5.126,-76.725 -10.437,-78.962C-24.592,-84.925 -30.166,-101.112 -22.043,-113.093C-14.371,-124.407 0.038,-129.885 16.063,-119.594C25.972,-113.231 27.74,-94.912 19.131,-85.094C16.329,-81.898 11.615,-80.447 8.066,-77.809C6.324,-76.513 4.048,-74.33 4.042,-72.542C3.914,-33.248 4.071,6.046 4.174,45.341L-4.402,45.341Z" />
        </g>
        <g transform="matrix(1,0,0,1,3149.74,1337.7)">
            <path d="M0,57.811C-0.081,48.757 -6.964,42.414 -16.779,42.345C-25.462,42.285 -32.537,49.494 -32.387,58.249C-32.223,67.855 -25.516,75.008 -16.684,74.995C-6.456,74.98 0.094,68.234 0,57.811M72.811,-16.281C64.536,-9.162 56.125,-2.194 48.019,5.111C36.445,15.543 25.325,26.488 13.551,36.682C7.765,41.691 4.699,45.824 7.463,54.386C11.155,65.83 2.659,78.871 -8.304,81.811C-22.161,85.526 -35.267,79.447 -39.006,67.056C-41.847,57.644 -40.937,48.553 -33.553,41.236C-25.78,33.535 -16.479,32.686 -6.512,36.136C-4.729,36.753 -3.063,37.703 -0.493,38.893C3.138,35.046 6.713,30.728 10.828,27.007C19.955,18.753 29.459,10.916 38.614,2.691C48.418,-6.116 57.973,-15.2 67.7,-24.093C69.229,-25.491 71.099,-26.517 72.811,-27.715L72.811,-16.281Z" />
        </g>
        <g transform="matrix(1,0,0,1,3196.82,1428.43)">
            <path d="M0,-2.169C-8.409,-2.182 -15.447,4.692 -15.604,13.069C-15.78,22.566 -9.033,30.196 -0.356,30.31C10.204,30.45 16.794,24.143 16.93,13.767C17.057,4.108 10.404,-2.153 0,-2.169M55.73,-30.386C44.9,-20.747 33.959,-11.227 23.412,-1.289C22.333,-0.272 23.287,3.334 23.859,5.597C26.289,15.213 25.356,24.077 18.083,31.375C11.237,38.245 2.69,39.651 -6.316,37.279C-19.85,33.713 -26.9,19.247 -22.236,5.476C-17.738,-7.808 -2.756,-14.299 11.122,-8.125C15.641,-6.115 17.709,-7.304 20.724,-10.095C32.277,-20.794 44.043,-31.264 55.73,-41.82L55.73,-30.386Z" />
        </g>
        <g transform="matrix(1,0,0,1,3134.36,2481.01)">
            <path d="M0,-571.725C-1.106,-562.014 10.187,-555.496 17.128,-555.418C25.283,-555.326 32.406,-562.614 32.666,-571.023C32.96,-580.502 26.31,-587.685 17.134,-587.799C7.584,-587.918 0.096,-580.892 0,-571.725M422.494,16.945C432.203,16.782 439.102,10.276 439.084,1.301C439.064,-8.292 431.549,-15.757 422.058,-15.609C413.607,-15.477 406.454,-7.699 406.427,1.388C406.401,9.855 413.875,17.091 422.494,16.945M417.806,-23.671L417.806,-199.236L145.614,-199.236L145.614,-403.374L13.466,-403.374L13.466,-546.374C8.16,-549.175 3.219,-550.79 -0.445,-553.909C-10.046,-562.08 -10.541,-578.716 -2.063,-588.118C6.692,-597.828 23.187,-598.81 32.772,-590.045C37.305,-585.9 41.505,-581.675 41.94,-574.741C42.688,-562.847 38.699,-556.402 25.883,-548.973C23.754,-547.739 21.265,-544.776 21.249,-542.596C20.964,-500.923 21.021,-459.248 21.033,-417.574C21.033,-416.425 21.324,-415.276 21.569,-413.459L152.997,-413.459L152.997,-207.141L162.828,-207.141C247.122,-207.139 331.415,-207.138 415.708,-207.135C426.162,-207.134 426.163,-207.131 426.163,-197.016C426.165,-142.232 426.167,-87.449 426.169,-32.665L426.169,-24.308C442.671,-17.851 449.163,-7.946 446.937,5.572C445.179,16.253 432.523,26.385 422.466,26.783C414.843,27.085 400.293,16.674 399.01,6.169C397.576,-5.564 400.669,-18.078 417.806,-23.671" />
        </g>
        <g transform="matrix(1,0,0,1,3283.75,2392.12)">
            <path d="M0,206.518C0.094,196.634 -6.216,189.583 -15.192,189.54C-25.521,189.491 -32.088,195.912 -32.322,206.29C-32.524,215.225 -25.489,221.872 -15.752,221.947C-6.401,222.018 -0.089,215.835 0,206.518M-666.559,17.474C-657.87,17.55 -650.914,10.61 -650.707,1.66C-650.495,-7.484 -657.646,-15.074 -666.495,-15.097C-676.42,-15.124 -683.418,-8.35 -683.339,1.207C-683.258,11.066 -676.74,17.384 -666.559,17.474M-259.934,201.124C-247.43,201.124 -235.363,201.123 -223.297,201.124C-167.087,201.125 -110.877,200.953 -54.67,201.312C-46.099,201.367 -39.889,201.662 -35.571,191.748C-31.317,181.979 -17.951,179.119 -7.328,182.929C3.097,186.669 9.011,196.277 8.283,208.289C7.64,218.898 -0.379,227.762 -11.27,229.902C-21.937,231.997 -32.806,226.838 -37.691,217.278C-38.764,215.179 -39.577,212.948 -40.656,210.436L-57.083,210.436C-124.474,210.437 -191.864,210.439 -259.255,210.437C-268.685,210.436 -268.697,210.428 -268.695,201.252C-268.69,161.044 -268.984,120.832 -268.441,80.632C-268.314,71.238 -272.893,65.792 -278.883,60.108C-287.605,51.832 -295.894,43.1 -304.514,34.713C-314.026,25.457 -323.641,16.303 -333.395,7.304C-334.572,6.217 -336.892,5.999 -338.682,5.999C-439.414,5.965 -540.146,5.996 -640.878,6.033C-641.341,6.033 -641.804,6.201 -642.266,6.295C-649.795,22.047 -657.163,26.855 -670.959,25.027C-682.642,23.477 -690.584,14.916 -691.394,2.996C-692.168,-8.388 -685.323,-18.852 -675.091,-21.925C-663.262,-25.479 -650.35,-20.988 -645.8,-10.459C-643.241,-4.539 -639.974,-3.288 -634.107,-3.355C-608.15,-3.65 -582.187,-3.481 -556.226,-3.481C-484.085,-3.482 -411.944,-3.409 -339.804,-3.599C-332.708,-3.618 -328.422,-1.282 -323.876,4.447C-317.469,12.522 -308.85,18.81 -301.418,26.109C-289.434,37.877 -277.799,50.004 -265.691,61.643C-261.745,65.436 -260.256,69.328 -260.282,74.751C-260.479,115.889 -260.391,157.028 -260.375,198.167C-260.375,198.86 -260.176,199.553 -259.934,201.124" />
        </g>
        <g transform="matrix(1,0,0,1,3300.86,2461.67)">
            <path d="M0,205.309C0.085,194.86 -5.979,188.279 -15.723,188.247C-25.489,188.213 -32.089,194.826 -32.271,204.826C-32.436,213.928 -25.636,220.545 -15.868,220.788C-6.883,221.01 -0.073,214.369 0,205.309M-683.39,0.221C-683.206,9.704 -676.072,16.41 -666.241,16.34C-657.554,16.279 -650.372,8.429 -650.669,-0.68C-650.96,-9.581 -657.986,-16.383 -666.812,-16.305C-676.689,-16.218 -683.575,-9.354 -683.39,0.221M-328.523,200.961L-40.81,200.961C-34.985,185.105 -25.695,178.465 -12.337,180.398C-0.431,182.121 7.758,191.163 8.306,203.19C8.846,215.077 1.792,225.198 -9.005,228.026C-22.808,231.641 -32.571,226.006 -40.901,209.324L-47.79,209.324C-141.165,209.321 -234.54,209.241 -327.914,209.468C-334.962,209.485 -336.745,207.448 -336.709,200.549C-336.43,148.157 -336.613,95.762 -336.492,43.368C-336.473,35.286 -339.733,30.215 -346.601,25.672C-353.205,21.303 -358.027,14.326 -364.146,9.094C-366.738,6.877 -370.637,4.99 -373.946,4.982C-461.604,4.763 -549.261,4.832 -636.918,4.735C-640.941,4.731 -643.074,5.623 -644.812,9.721C-649.797,21.473 -660.692,26.369 -673.674,23.534C-683.996,21.28 -691.616,11.066 -691.467,-0.316C-691.314,-11.867 -683.768,-21.491 -673.162,-23.657C-660.067,-26.332 -649.357,-21.407 -644.713,-9.406C-642.738,-4.305 -639.507,-4.895 -635.802,-4.894C-553.146,-4.889 -470.488,-4.57 -387.837,-5.176C-373.077,-5.285 -361.017,-3.729 -351.813,9.384C-347.032,16.196 -339.192,20.783 -333.512,27.077C-330.966,29.898 -329.041,34.435 -329.02,38.205C-328.729,91.038 -328.816,143.874 -328.799,196.709C-328.799,197.862 -328.654,199.014 -328.523,200.961" />
        </g>
        <g transform="matrix(1,0,0,1,2753.59,1841.84)">
            <path d="M0,204.228C-0.092,195.235 -6.93,188.24 -15.602,188.12C-22.562,188.023 -32.897,196.632 -32.831,204.738C-32.77,212.365 -22.289,221.227 -15.101,220.846C-6.545,220.392 0.093,213.326 0,204.228M620.472,16.061C630.507,15.965 636.671,9.598 636.647,-0.646C636.626,-9.784 629.347,-16.794 620.148,-16.537C611.146,-16.284 604.145,-9.302 604.257,-0.685C604.391,9.566 610.77,16.154 620.472,16.061M595.718,3.373L188.267,3.373C188.118,6.56 187.877,9.327 187.876,12.095C187.849,74.722 187.735,137.35 187.997,199.977C188.026,206.965 185.721,209.237 179.084,209.15C161.47,208.921 143.851,209.041 126.234,209.039C87.447,209.033 48.661,209.037 10.11,209.037C3.122,223.946 -8.347,231.018 -20.636,228.351C-33.435,225.573 -40.609,216.843 -40.504,204.177C-40.401,191.912 -33.45,183.669 -20.724,180.723C-8.391,177.868 2.814,184.701 9.981,199.763L179.664,199.763C179.664,196.056 179.665,192.79 179.664,189.525C179.658,128.327 179.651,67.129 179.647,5.931C179.646,-4.778 179.65,-4.717 190.703,-4.721C241.166,-4.739 291.629,-4.817 342.092,-4.829C423.991,-4.848 505.891,-4.881 587.79,-4.724C593.344,-4.713 596.498,-5.614 598.964,-11.488C603.39,-22.032 615.949,-26.79 627.368,-23.73C637.558,-20.999 645.123,-10.907 644.903,-0.341C644.642,12.204 636.664,21.967 624.979,24.043C613.652,26.056 602.523,20.219 598.05,9.855C597.204,7.895 596.595,5.832 595.718,3.373" />
        </g>
        <g transform="matrix(1,0,0,1,2744.97,1803.69)">
            <path d="M0,-174.048C0.695,-165.058 6.464,-157.1 17.228,-157.167C25.403,-157.218 32.408,-165.363 32.347,-174.568C32.292,-182.91 25.126,-189.875 16.699,-189.776C7.071,-189.664 -0.071,-182.937 0,-174.048M398.681,-157.243C407.504,-157.322 414.895,-165.271 414.754,-174.529C414.622,-183.23 407.518,-189.8 398.291,-189.754C389.305,-189.708 382.082,-182.733 382.114,-174.134C382.146,-165.497 390.315,-157.169 398.681,-157.243M372.147,-170.061L86.17,-170.061L86.17,30.27L12.961,30.27L12.961,-5.813C12.959,-51.061 12.914,-96.309 13.018,-141.557C13.029,-146.428 12.671,-149.292 6.704,-151.178C-8.687,-156.045 -12.784,-177.989 -1.792,-190.438C10.464,-204.318 28.713,-201.22 37.529,-185.677C44.973,-172.553 39.814,-156.748 25.642,-150.928C21.919,-149.399 20.597,-147.714 20.604,-143.754C20.717,-90.186 20.674,-36.617 20.696,16.951C20.696,18.565 20.989,20.179 21.182,22.161L77.68,22.161C77.68,19.106 77.679,16.329 77.68,13.552C77.685,-47.158 77.691,-107.869 77.694,-168.58C77.694,-178.122 77.702,-178.114 87.147,-178.114C180.464,-178.114 273.779,-178.15 367.096,-178.049C371.821,-178.044 374.376,-178.884 376.622,-183.877C380.25,-191.939 386.144,-197.976 396.2,-199.251C410.315,-201.039 422.452,-186.618 422.595,-175.939C422.725,-166.21 420.218,-157.428 410.962,-152.316C402.079,-147.408 392.618,-147.239 384.71,-153.376C379.783,-157.199 376.857,-163.601 372.147,-170.061" />
        </g>
        <g transform="matrix(1,0,0,1,2845.38,2965.67)">
            <path d="M0,334.333C0.043,342.565 8.57,350.565 17.18,350.451C25.771,350.338 32.693,342.952 32.502,334.104C32.304,324.906 25.705,318.054 16.978,317.98C8.204,317.907 -0.044,325.852 0,334.333M299.013,16.536C308.398,16.81 315.579,10.173 315.833,0.99C316.092,-8.374 309.491,-15.603 300.319,-15.998C290.721,-16.411 283.391,-9.536 283.181,0.078C282.975,9.484 289.493,16.26 299.013,16.536M42.209,329.379L294.931,329.379C294.931,320.987 294.931,313.011 294.932,305.035C294.935,241.217 294.963,177.398 294.931,113.581C294.916,86.449 294.664,59.316 294.796,32.186C294.82,27.151 294.005,24.261 288.621,22.091C278.259,17.915 273.524,7.078 275.609,-4.505C277.494,-14.977 285.705,-22.742 295.858,-23.654C308.582,-24.798 318.034,-19.402 322.173,-8.634C326.828,3.479 321.838,17.423 310.245,22.085C305.208,24.111 304.242,26.755 304.247,31.545C304.349,117.479 304.308,203.412 304.298,289.347C304.296,303.115 304.166,316.887 304.36,330.653C304.441,336.369 303.287,339.037 296.402,339.017C213.782,338.776 131.16,338.947 48.539,338.846C43.885,338.84 41.453,339.848 39.657,344.579C36.575,352.702 24.969,359.131 15.728,358.327C5.688,357.454 -2.848,353.557 -6.587,343.361C-10.152,333.638 -9.013,324.111 -1.196,317.021C12.354,304.727 32.15,309.074 40.172,324.759C40.911,326.205 41.488,327.734 42.209,329.379" />
        </g>
        <g transform="matrix(1,0,0,1,3230.85,2529.37)">
            <path d="M0,205.939C-0.109,196.009 -7.213,188.569 -16.32,188.843C-24.427,189.088 -32.522,197.163 -33.044,205.525C-33.438,211.844 -22.715,221.81 -15.551,221.785C-7.812,221.756 0.086,213.709 0,205.939M-529.763,0.384C-529.803,10.122 -523.156,16.65 -513.094,16.757C-504.154,16.853 -497.513,9.715 -497.58,0.085C-497.645,-9.174 -504.179,-15.898 -513.017,-15.801C-523.225,-15.689 -529.723,-9.408 -529.763,0.384M-311.264,201.272L-41.264,201.272C-35.32,186.414 -24.285,178.714 -12.103,180.894C0.448,183.14 8.595,192.543 9.205,205.486C9.694,215.866 1.141,226.093 -10.204,228.693C-22.71,231.559 -34.407,224.69 -41.371,209.941L-49.548,209.941C-136.247,209.935 -222.946,209.93 -309.645,209.925C-319.312,209.924 -319.541,209.707 -319.541,199.808C-319.546,134.965 -319.543,79.613 -319.542,14.772L-319.542,5.683C-322.612,5.526 -325.176,5.282 -327.74,5.28C-379.426,5.259 -431.112,5.324 -482.797,5.169C-487.451,5.156 -489.703,6.296 -491.619,10.93C-496.223,22.061 -507.502,26.706 -520.149,23.73C-531.152,21.141 -537.951,12.077 -537.864,0.111C-537.776,-11.936 -530.63,-20.658 -518.848,-23.096C-506.659,-25.62 -495.417,-20.607 -491.412,-9.539C-489.491,-4.231 -486.435,-4.272 -482.285,-4.275C-428.693,-4.317 -375.103,-4.31 -321.511,-4.301C-311.398,-4.299 -311.277,-4.221 -311.273,6.139C-311.25,67.799 -311.263,129.46 -311.264,191.121L-311.264,201.272Z" />
        </g>
        <g transform="matrix(1,0,0,1,3322.69,1992.22)">
            <path d="M0,-234.666C-9.322,-234.562 -17.013,-227.426 -16.832,-219.048C-16.644,-210.244 -8.024,-202.018 0.704,-202.31C9.467,-202.604 16.077,-210.247 15.788,-219.749C15.526,-228.339 8.726,-234.764 0,-234.666M-569.16,-14.192C-569.261,-23.448 -575.716,-30.154 -584.583,-30.214C-593.513,-30.275 -601.587,-22.559 -601.558,-13.991C-601.528,-5.693 -592.898,2.402 -584.31,2.187C-575.57,1.968 -569.062,-5.068 -569.16,-14.192M-449.329,-9.445C-452.725,-9.445 -455.282,-9.447 -457.839,-9.445C-489.514,-9.426 -521.187,-9.345 -552.861,-9.454C-557.321,-9.47 -559.545,-8.291 -561.932,-3.913C-566.798,5.011 -574.794,10.749 -585.639,10.005C-595.391,9.336 -603.9,5.749 -607.661,-4.178C-611.271,-13.705 -611.06,-23.442 -603.237,-30.694C-588.492,-44.366 -569.602,-39.145 -561.101,-22.964C-560.45,-21.725 -560.07,-20.343 -559.572,-19.046L-457.303,-19.046L-457.303,-27.734C-457.301,-90.13 -457.187,-152.527 -457.459,-214.922C-457.488,-221.644 -455.479,-223.457 -449.037,-223.438C-355.231,-223.163 -261.426,-223.033 -167.62,-222.985C-122.139,-222.962 -76.656,-223.182 -31.175,-223.291C-29.287,-223.295 -27.398,-223.291 -25.663,-223.291C-18.884,-240.165 -6.934,-245.415 6.744,-241.843C18.437,-238.791 25.897,-228.247 25.042,-217.266C24.21,-206.569 14.382,-196.001 4.002,-194.642C-10.188,-192.782 -19.32,-199.103 -25.333,-215.31L-449.329,-215.31L-449.329,-9.445Z" />
        </g>
        <g transform="matrix(1,0,0,1,3210,2101.76)">
            <path d="M0,-105.697C-0.134,-95.956 6.253,-88.334 14.975,-88.41C24.807,-88.497 31.885,-94.868 32.414,-105.104C32.914,-114.778 23.409,-120.426 15.569,-120.826C7.127,-121.257 0.114,-114.101 0,-105.697M346.738,55.342C356.714,55.292 363.447,48.702 363.472,38.964C363.495,29.413 356.359,22.575 346.556,22.752C337.839,22.909 330.607,30.232 330.752,38.755C330.911,48.172 337.864,55.386 346.738,55.342M214.052,34.288C217.58,34.288 220.14,34.282 222.7,34.288C253.659,34.365 284.619,34.381 315.578,34.584C320.592,34.617 323.555,33.412 325.601,28.135C329.823,17.243 341.708,12.513 354.292,15.691C365.154,18.434 372.169,28.508 371.562,40.492C370.975,52.125 362.57,61.503 351.39,63.005C339.082,64.658 329.437,59.79 324.827,48.573C323.045,44.236 320.596,43.82 316.705,43.832C282.661,43.943 248.613,43.678 214.572,44.065C207.354,44.147 205.937,41.676 205.959,35.075C206.175,-26.836 206.087,-88.748 206.087,-150.659L206.087,-160.599L19.312,-160.599C19.312,-150.971 18.939,-141.498 19.611,-132.099C19.754,-130.103 23.436,-127.806 25.946,-126.631C35.521,-122.148 40.402,-115.116 40.313,-105.011C40.222,-94.642 35.113,-86.283 27.345,-83.011C16.703,-78.529 7.065,-79.149 -1.57,-87.497C-15.069,-100.545 -11.132,-116.647 3.244,-125.324C9.33,-128.997 12.138,-133.009 11.567,-140.363C10.836,-149.815 11.39,-159.367 11.39,-169.703C13.945,-169.887 16.214,-170.19 18.481,-170.192C80.859,-170.234 143.237,-170.195 205.614,-170.341C211.783,-170.355 214.265,-168.981 214.228,-161.906C213.902,-100.477 214.047,-39.047 214.052,22.384C214.053,26.115 214.052,29.846 214.052,34.288" />
        </g>
        <g transform="matrix(1,0,0,1,2845.34,2970.23)">
            <path d="M0,261.596C0.069,270.024 8.519,277.846 17.336,277.647C25.911,277.453 32.751,270.094 32.622,261.2C32.495,252.387 25.306,244.962 16.909,244.971C8.625,244.981 -0.066,253.526 0,261.596M214.917,-4.586C214.718,4.744 221.415,11.77 230.725,11.996C240.462,12.233 247.183,6.038 247.46,-3.43C247.746,-13.189 240.986,-20.455 231.508,-20.577C222.353,-20.694 215.112,-13.716 214.917,-4.586M226.64,256.505C226.64,252.935 226.641,250.154 226.64,247.371C226.624,173.779 226.592,100.185 226.642,26.591C226.644,22.536 226.437,19.927 221.523,18.114C210.277,13.962 205.084,2.471 207.555,-10.023C209.69,-20.823 219.179,-28.282 230.805,-28.301C243.841,-28.322 252.63,-21.337 255.222,-8.892C257.558,2.317 252.104,13.858 241.387,17.953C236.436,19.845 235.855,22.532 235.86,26.942C235.952,103.156 235.93,179.368 235.932,255.581L235.932,265.965L44.818,265.965C39.027,272.19 35.195,277.58 30.182,281.438C19.158,289.918 4.632,284.946 -2.263,277.587C-10.557,268.736 -10.252,254.105 -2.062,244.905C5.504,236.407 21.562,234.465 30.532,241.64C34.614,244.907 37.302,249.865 41.107,253.554C42.782,255.178 45.665,256.365 48.006,256.375C86.111,256.555 124.218,256.518 162.324,256.522C181.14,256.524 199.955,256.511 218.771,256.505C221.091,256.504 223.411,256.505 226.64,256.505" />
        </g>
        <g transform="matrix(1,0,0,1,2814.42,2805.59)">
            <path d="M0,-190.199C0.164,-198.714 -6.537,-205.808 -14.984,-206.061C-23.824,-206.326 -32.025,-199.02 -32.603,-190.947C-33.146,-183.346 -22.811,-173.576 -16.086,-173.512C-8.356,-173.438 -0.163,-181.733 0,-190.199M344.644,12.938C353.551,13.049 360.344,6.844 360.637,-1.671C360.975,-11.443 354.061,-19.318 345.126,-19.337C336.816,-19.353 328.621,-11.389 328.385,-3.067C328.143,5.439 335.646,12.825 344.644,12.938M41.671,1.57L41.671,-186.242C31.282,-186.242 21.331,-186.931 11.592,-185.8C8.854,-185.481 6.586,-179.913 4.368,-176.577C-3.078,-165.375 -17.162,-162.278 -29.726,-169.204C-38.415,-173.994 -42.955,-189.454 -38.692,-199.733C-33.72,-211.721 -19.71,-219.339 -8.591,-214.08C-2.048,-210.986 2.576,-203.903 8.199,-198.762C9.996,-197.118 12.168,-194.864 14.269,-194.751C22.817,-194.289 31.404,-194.546 39.977,-194.545C49.581,-194.544 49.646,-194.515 49.648,-185.105C49.658,-129.176 49.651,-73.246 49.649,-17.317L49.649,-6.256L58.404,-6.256C143.417,-6.253 228.431,-6.267 313.443,-6.201C317.828,-6.198 320.584,-6.422 321.921,-12.022C324.46,-22.669 339.359,-29.624 350.975,-26.661C362.881,-23.624 370.063,-13.97 370.047,-1.687C370.035,6.553 365.367,11.513 359.598,16.573C345.272,29.14 326.685,18.222 322.302,7C320.369,2.052 317.708,1.494 313.31,1.499C226.392,1.587 139.474,1.568 52.556,1.57L41.671,1.57Z" />
        </g>
        <g transform="matrix(1,0,0,1,3067.8,2177.1)">
            <path d="M0,1.365C-0.008,10.813 6.657,17.797 15.639,17.753C23.614,17.713 32.204,9.338 32.306,1.501C32.411,-6.683 23.806,-14.831 15.174,-14.719C6.18,-14.602 0.008,-8.06 0,1.365M-398.063,1.689C-397.97,-8.172 -404.23,-14.753 -413.662,-14.706C-422.262,-14.662 -430.364,-7.039 -430.521,1.158C-430.678,9.315 -422.01,17.741 -413.481,17.723C-404.592,17.703 -398.152,11.007 -398.063,1.689M-438.342,-1.8C-438.279,-7.472 -435.159,-14.863 -426.52,-19.341C-416.481,-24.543 -406.805,-24.797 -398.081,-17.022C-394.688,-13.998 -392.453,-9.712 -389.338,-6.325C-387.988,-4.858 -385.798,-3.474 -383.896,-3.337C-378.449,-2.943 -372.954,-3.212 -367.478,-3.211C-250.57,-3.206 -133.662,-3.222 -16.754,-3.108C-12.007,-3.103 -9.396,-3.947 -7.293,-8.968C-1.874,-21.899 14.719,-26.437 27.886,-19.385C39.963,-12.916 44.401,2.41 37.124,14.164C32.271,22.003 24.537,25.427 15.445,25.326C4.764,25.209 -3.434,20.253 -7.821,10.612C-9.611,6.678 -11.6,6.014 -15.255,6.016C-137.639,6.073 -260.022,6.085 -382.406,5.957C-386.953,5.952 -388.628,7.642 -390.65,11.579C-395.177,20.396 -406.17,27.802 -418.623,25.168C-431.199,22.509 -438.265,14.148 -438.342,-1.8" />
        </g>
        <g transform="matrix(1,0,0,1,3070.77,1482.15)">
            <path d="M0,-213.553C8.913,-213.61 16.992,-221.113 16.931,-229.275C16.883,-235.671 6.144,-245.931 -0.212,-245.654C-8,-245.313 -15.747,-236.742 -15.596,-228.633C-15.436,-220.005 -8.704,-213.497 0,-213.553M169.978,19.352C168.971,29.616 177.572,35.218 186.582,35.792C195.238,36.344 202.279,28.891 202.343,19.91C202.407,10.65 195.976,3.697 187.136,3.47C177.029,3.21 170.126,9.6 169.978,19.352M3.869,14.995L11.688,14.995C59.538,14.992 107.389,14.926 155.238,15.085C159.858,15.101 161.991,14.024 163.939,9.378C170.893,-7.206 193.776,-9.574 205.396,4.185C211.742,11.698 214.273,20.107 210.025,28.3C205.306,37.403 197.765,44.61 185.835,43.777C175.244,43.037 166.693,38.939 163.324,28.333C161.807,23.552 158.892,24.27 155.709,24.269C105.954,24.248 56.199,24.254 6.444,24.253L-4.2,24.253L-4.2,14.97C-4.198,-55.496 -4.234,-125.963 -4.114,-196.429C-4.105,-201.353 -4.896,-204.097 -10.15,-206.558C-24.195,-213.136 -29.66,-228.553 -21.209,-242.245C-13.751,-254.329 3.931,-258.163 15.557,-248.887C22.689,-243.197 26.038,-234.739 24.334,-225.358C22.86,-217.246 19.827,-209.481 11.015,-206.831C5.145,-205.067 3.71,-202.013 3.729,-196.146C3.944,-129.013 3.868,-61.879 3.869,5.255L3.869,14.995Z" />
        </g>
        <g transform="matrix(1,0,0,1,2644.16,2110)">
            <path d="M0,-0.942C0.033,-10.031 -6.867,-17.374 -15.259,-17.179C-23.646,-16.985 -32.23,-9.077 -32.452,-1.342C-32.692,6.99 -24.443,15.274 -15.727,15.456C-6.517,15.648 -0.036,8.891 0,-0.942M362.134,15.531C371.832,15.576 378.673,8.623 378.578,-1.181C378.487,-10.459 371.555,-17.153 362.104,-17.09C353.221,-17.031 346.126,-10.184 345.956,-1.508C345.765,8.273 352.615,15.488 362.134,15.531M337.55,-5.609C344.982,-21.703 353.856,-27.239 367.369,-24.598C378.767,-22.371 386.436,-13.181 386.744,-1.382C387.05,10.311 379.68,20.122 368.55,22.839C356.805,25.706 344.871,20.787 340.534,10.061C338.405,4.798 335.705,3.787 330.612,3.793C226.133,3.927 121.652,3.925 17.173,3.788C12.037,3.782 9.399,4.976 7.114,10.099C1.289,23.159 -17.208,27.251 -30.476,19.161C-41.015,12.734 -43.601,-5.045 -35.565,-15.833C-28.604,-25.177 -12.741,-28.193 -2.813,-21.23C1.614,-18.124 4.649,-13.078 8.52,-9.111C9.945,-7.65 11.915,-6.684 13.729,-5.658C14.271,-5.352 15.132,-5.606 15.846,-5.606C121.524,-5.607 227.203,-5.608 332.883,-5.609L337.55,-5.609Z" />
        </g>
        <g transform="matrix(1,0,0,1,3351.7,2221.11)">
            <path d="M0,-207.941C-8.433,-207.83 -15.543,-200.609 -15.388,-192.314C-15.209,-182.744 -8.201,-175.411 0.562,-175.625C8.6,-175.821 17.495,-185.046 17.248,-192.927C17.02,-200.199 8.004,-208.046 0,-207.941M204.545,3.97C214.441,4.075 221.506,-2.088 221.77,-11.055C222.071,-21.349 215.684,-28.12 205.323,-28.486C196.313,-28.804 189.124,-21.255 189.115,-11.467C189.107,-3.113 196.099,3.881 204.545,3.97M180.759,-7.623L-3.876,-7.623L-3.876,-19.154C-3.875,-66.055 -3.936,-112.956 -3.781,-159.857C-3.765,-164.844 -4.613,-167.679 -9.88,-170C-23.219,-175.876 -29,-191.249 -22.153,-202.992C-16.237,-213.138 -1.681,-222.011 8.902,-215.706C25.287,-205.943 30.293,-190.836 21.07,-177.963C18.363,-174.183 13.607,-171.416 9.226,-169.433C5.624,-167.802 4.231,-166.299 4.244,-162.255C4.396,-115.593 4.388,-68.93 4.274,-22.268C4.262,-17.015 5.386,-16.382 11.119,-16.53C39.669,-17.266 68.248,-16.86 96.817,-16.861C115.681,-16.862 134.544,-16.879 153.407,-16.878C161.256,-16.878 169.118,-16.59 176.943,-17.014C178.919,-17.121 181.66,-19.025 182.542,-20.837C188.72,-33.533 198.702,-38.702 212.187,-35.674C222.941,-33.259 230.198,-23.155 229.85,-11.082C229.512,0.642 221.947,9.343 210.098,11.636C197.519,14.07 187.624,8.436 182.441,-4.091C181.995,-5.17 181.438,-6.203 180.759,-7.623" />
        </g>
        <g transform="matrix(1,0,0,1,2900.26,2176.41)">
            <path d="M0,121.149C-0.028,112.269 -7.625,104.058 -15.769,104.104C-24.355,104.151 -32.37,112.632 -32.773,121.194C-33.188,129.976 -21.967,136.879 -15.521,136.722C-7.144,136.518 0.026,129.418 0,121.149M301.471,-13.102C292.687,-13.438 285.193,-6.776 284.754,1.758C284.273,11.075 290.893,18.755 299.535,19.271C310.167,19.905 315.657,14.436 317.16,3.296C318.345,-5.478 310.896,-12.742 301.471,-13.102M296.228,117.233L296.228,109.753C296.223,84.553 296.135,59.353 296.29,34.153C296.317,29.725 295.625,27.22 290.805,25.216C274.614,18.485 271.966,-4.144 285.141,-15.821C292.698,-22.519 301.25,-25.043 309.846,-20.752C318.936,-16.214 325.924,-8.486 325.364,2.821C324.839,13.433 320.776,22.462 309.678,25.943C305.456,27.268 305.729,29.874 305.733,33.027C305.763,60.629 305.757,88.23 305.738,115.831C305.732,125.058 305.701,125.122 296.177,125.124C204.968,125.143 113.76,125.138 22.552,125.14C18.275,125.141 13.999,125.14 10.402,125.14C3.517,135.951 -3.002,146.192 -17.094,146.067C-27.244,145.977 -37.434,137.107 -39.994,126.889C-42.483,116.956 -38.195,105 -30.482,100.37C-19.97,94.058 -7.531,94.766 0.532,102.729C3.582,105.74 5.308,110.055 8.155,113.324C9.71,115.108 12.313,116.959 14.506,117.04C24.971,117.428 35.456,117.223 45.935,117.224C126.188,117.228 206.442,117.231 286.696,117.233L296.228,117.233Z" />
        </g>
        <g transform="matrix(1,0,0,1,3254.93,1722.54)">
            <path d="M0,-33.42C-9.76,-33.425 -17.076,-26.846 -17.109,-18.036C-17.144,-8.681 -9.372,-0.79 -0.183,-0.851C8.602,-0.908 15.269,-8.258 15.286,-17.903C15.303,-26.489 8.479,-33.415 0,-33.42M-360.482,-33.432C-370.086,-33.623 -377.469,-27.215 -377.772,-18.428C-378.122,-8.29 -371.562,-1.258 -361.395,-0.874C-352.738,-0.546 -345.594,-7.731 -345.191,-17.167C-344.82,-25.859 -351.777,-33.259 -360.482,-33.432M-337.036,-13.922C-341.785,1.685 -350.897,8.444 -364.131,6.812C-377.338,5.184 -385.331,-3.588 -385.947,-17.132C-386.503,-29.356 -376.519,-40.255 -362.209,-43.045C-354.65,-44.519 -341.953,-34.088 -336.834,-21.91C-334.661,-21.91 -332.3,-21.912 -329.938,-21.91C-230.407,-21.823 -130.876,-21.746 -31.344,-21.614C-27.173,-21.608 -24.815,-22.757 -23.085,-27.157C-19.125,-37.228 -9.674,-42.35 -0.229,-42.49C8.402,-42.618 16.765,-37.211 21.093,-28.247C27.272,-15.448 21.822,-0.278 9.036,5.245C-4.52,11.099 -18.64,4.406 -24.108,-10.068C-24.76,-11.794 -27.663,-13.555 -29.654,-13.721C-35.545,-14.212 -41.501,-13.921 -47.433,-13.921C-141.488,-13.923 -235.544,-13.922 -329.601,-13.922L-337.036,-13.922Z" />
        </g>
        <g transform="matrix(1,0,0,1,2845.37,2969.03)">
            <path d="M0,193.811C-0.188,202.297 7.797,210.483 16.473,210.697C25.05,210.909 32.197,203.953 32.561,195.039C32.93,185.99 25.723,178.136 16.99,178.071C8.819,178.009 0.173,186.02 0,193.811M162.991,13.202C172.793,13.079 179.683,6.143 179.429,-3.346C179.194,-12.117 171.872,-19.803 163.896,-19.652C153.813,-19.46 146.35,-11.864 146.499,-1.945C146.623,6.319 154.235,13.311 162.991,13.202M42.646,198.797C35.517,213.954 23.83,221.096 11.709,218.255C-0.966,215.284 -8.503,206.191 -8.313,194.1C-8.122,181.902 -0.169,172.778 12.301,170.448C24.48,168.172 36.166,175.471 42.203,189.147L158.04,189.147C158.181,186.641 158.399,184.549 158.399,182.457C158.413,131.247 158.341,80.037 158.495,28.827C158.51,23.778 157.641,20.95 152.308,18.735C141.641,14.306 136.596,2.032 139.516,-9.277C142.51,-20.876 151.271,-27.285 163.808,-27.049C175.653,-26.826 184.882,-19.236 187.105,-7.888C189.344,3.534 184.014,14.876 173.354,19.116C168.568,21.019 167.68,23.568 167.689,28.111C167.812,81.464 167.767,134.819 167.766,188.172L167.766,198.797L42.646,198.797Z" />
        </g>
        <g transform="matrix(1,0,0,1,2921.7,1070.39)">
            <path d="M0,277.855C8.259,277.893 17.513,267.336 16.828,260.022C16.127,252.542 7.827,244.975 -0.29,245.106C-8.685,245.242 -15.692,252.338 -15.717,260.726C-15.74,269.193 -7.621,278.043 0,277.855ZM-5.864,-10.453L1.883,-10.453L1.883,155.959L89.212,155.959C89.414,158.812 89.687,160.878 89.688,162.946C89.716,194.141 89.538,225.337 89.841,256.528C89.907,263.38 87.268,265.071 80.981,264.96C64.08,264.664 47.167,265.035 30.265,264.762C25.931,264.692 23.547,265.914 22.827,270.166C20.737,282.515 2.584,288.308 -7.224,284.531C-19.745,279.709 -25.411,272.91 -25.017,259.407C-24.514,242.224 -4.905,231.585 10.345,239.274C16.783,242.521 20.967,246.804 23.786,253.148C24.447,254.636 26.608,256.403 28.104,256.427C43.817,256.673 59.535,256.601 75.252,256.587C77.13,256.585 79.007,256.409 81.386,256.288L81.386,164.342C78.657,164.22 76.13,164.012 73.602,164.01C49.789,163.99 25.977,163.942 2.164,164.06C-3.181,164.085 -6.351,162.815 -6.334,156.522C-6.191,101.992 -6.234,47.461 -6.208,-7.069C-6.207,-7.991 -6.026,-8.912 -5.864,-10.453Z" />
        </g>
        <g transform="matrix(1,0,0,1,2726.05,1430.18)">
            <path d="M0,-33.809C-8.198,-33.707 -15.449,-25.535 -15.314,-16.547C-15.187,-7.988 -8.321,-1.315 0.309,-1.36C9.444,-1.409 17.396,-8.843 17.201,-17.151C16.997,-25.794 8.61,-33.915 0,-33.809M281.241,-1.36C290.222,-1.333 297.361,-8.303 297.245,-16.982C297.13,-25.583 289.255,-33.944 281.379,-33.828C272.149,-33.692 264.93,-26.442 264.751,-17.127C264.576,-8.057 271.551,-1.388 281.241,-1.36M279.629,8.193C269.109,8.749 262.694,1.268 258.441,-8.201C256.715,-12.047 254.905,-12.941 251.17,-12.937C177.622,-12.864 104.074,-12.857 30.527,-12.976C26.607,-12.982 24.877,-11.784 23.29,-8.103C17.162,6.105 6.017,10.309 -6.406,7.185C-13.843,5.316 -23.736,-7.322 -24.881,-15.106C-25.983,-22.607 -18.268,-35.371 -9,-39.965C-1.634,-43.616 11.304,-41.626 17.659,-35.358C19.608,-33.437 21.431,-30.938 22.209,-28.37C23.874,-22.871 26.644,-20.883 32.774,-20.906C104.886,-21.174 176.999,-21.071 249.111,-21.094C252.972,-21.095 256.643,-20.263 258.527,-25.883C262.743,-38.447 273.849,-44.118 286.762,-41.395C298.115,-39.002 306.063,-27.648 305.141,-15.141C304.19,-2.256 293.374,8.192 279.629,8.193" />
        </g>
        <g transform="matrix(1,0,0,1,2794.5,3493.05)">
            <path d="M0,-336.393C2.227,-336.393 4.033,-334.586 4.035,-332.36C4.036,-330.967 4.036,-329.628 4.029,-328.289C3.865,-293.301 3.188,-316.465 3.194,-281.478C3.201,-243.877 2.908,-206.259 4.017,-168.686C4.358,-157.108 0.036,-149.352 -7.651,-142.346C-17.124,-133.712 -26.92,-125.433 -36.402,-116.808C-47.766,-106.473 -58.957,-95.948 -70.203,-85.482C-83.533,-73.077 -96.85,-60.657 -110.157,-48.226C-126.198,-33.243 -142.229,-18.247 -158.502,-3.029C-161.74,0 -166.839,-3.668 -164.93,-7.669C-163.305,-11.076 -160.164,-13.715 -157.48,-16.32C-148.976,-24.572 -139.653,-31.975 -130.89,-39.969C-118.336,-51.421 -105.881,-62.984 -93.559,-74.685C-80.059,-87.504 -66.984,-100.779 -53.302,-113.397C-41.823,-123.983 -29.451,-133.604 -18.018,-144.237C-10.052,-151.646 -3.733,-158.956 -3.926,-172.263C-4.953,-243.444 -4.036,-256.496 -4.036,-327.691L-4.036,-332.354C-4.036,-334.582 -2.229,-336.393 0,-336.393" />
        </g>
        <g transform="matrix(1,0,0,1,2840.93,1350.73)">
            <path d="M0,-32.793C-7.726,-32.727 -15.51,-23.975 -15.308,-15.583C-15.106,-7.232 -7.815,-0.062 0.338,-0.196C10.1,-0.357 17.115,-6.882 17.167,-15.846C17.218,-24.703 8.945,-32.87 0,-32.793M-209.675,-15.615C-209.386,-24.025 -217.139,-32.344 -225.669,-32.777C-233.747,-33.188 -242.051,-24.888 -242.271,-16.183C-242.474,-8.195 -235.114,-0.267 -227.336,-0.093C-217.432,0.127 -209.991,-6.411 -209.675,-15.615M-199.988,-19.978L-195.203,-19.978C-140.214,-19.98 -85.225,-20.049 -30.236,-19.873C-25.24,-19.857 -22.416,-20.97 -20.94,-26.07C-18.036,-36.106 -10.219,-40.433 -0.502,-40.914C8.495,-41.36 16.84,-38.5 21.291,-30.062C26.177,-20.798 27.618,-10.895 20.461,-1.897C16.744,2.775 13.192,7.759 6.128,8.589C-7.301,10.167 -13.968,7.282 -21.442,-7.023C-23.274,-10.531 -24.916,-11.814 -28.813,-11.804C-84.516,-11.671 -140.219,-11.663 -195.922,-11.772C-200.017,-11.78 -201.922,-10.61 -203.793,-6.694C-207.863,1.824 -213.525,8.788 -224.497,8.976C-235.653,9.167 -244.969,3.092 -248.859,-7.899C-252.404,-17.913 -248.615,-30.565 -240.268,-36.592C-231.804,-42.702 -218.854,-42.96 -211.06,-35.881C-206.723,-31.94 -204.125,-26.085 -199.988,-19.978" />
        </g>
        <g transform="matrix(1,0,0,1,2841.24,1253.19)">
            <path d="M0,28.94C9.734,28.892 16.911,22.304 16.906,13.421C16.902,3.891 9.268,-3.702 -0.261,-3.652C-8.534,-3.609 -15.671,4.449 -15.59,13.656C-15.517,22.141 -8.537,28.982 0,28.94M-226.785,28.94C-217.021,28.902 -209.978,22.438 -209.982,13.52C-209.987,3.519 -216.941,-3.52 -226.833,-3.535C-235.638,-3.548 -242.399,3.65 -242.562,13.211C-242.709,21.809 -235.521,28.975 -226.785,28.94M-202.154,17.961C-204.59,28.02 -211.529,34.084 -220.666,37.709C-233.416,42.768 -249.629,28.2 -250.57,15.701C-251.357,5.259 -246.089,-5.26 -236.734,-9.551C-227.411,-13.828 -214.485,-11.209 -207.898,-3.649C-206.811,-2.4 -205.261,-1.028 -205.099,0.419C-204.02,10.047 -197.386,9.521 -190.225,9.498C-137.129,9.333 -84.031,9.342 -30.936,9.504C-25.728,9.521 -22.977,8.57 -21.424,2.859C-18.767,-6.914 -8.09,-12.532 3.069,-11.29C15.42,-9.916 22.799,-2.454 24.651,9.639C27.003,24.998 14.009,37.23 1.704,38.574C-6.944,39.519 -17.351,32.03 -22.074,22.348C-23.122,20.2 -26.192,17.639 -28.342,17.63C-85.509,17.39 -142.678,17.459 -199.847,17.489C-200.311,17.489 -200.773,17.671 -202.154,17.961" />
        </g>
        <g transform="matrix(1,0,0,1,-0.518835,-15.8105)">
            <path d="M2718.77,3107.82L2718.4,3107.82C2718.5,3096.87 2718.67,3085.92 2718.67,3074.97C2718.69,3004.23 2718.67,2933.49 2718.67,2862.75C2718.67,2862.51 2718.6,2862.26 2718.66,2862.04C2720.96,2853.34 2717.25,2848.68 2709.4,2844.63C2696.96,2838.22 2693.84,2822.16 2702.39,2811.08C2709.11,2802.38 2724.07,2795.57 2739.72,2807.85C2748.34,2814.62 2751.29,2829.89 2743.67,2839.22C2739.71,2844.09 2733.24,2846.91 2726.98,2851.31L2726.98,3097.96L2727.06,3097.96C2727.06,3101.15 2727.06,3103.9 2727.06,3106.64C2726.97,3159.74 2726.86,3212.84 2726.81,3265.94C2726.8,3276.65 2727.34,3287.37 2726.87,3298.05C2726.71,3301.62 2725.07,3305.99 2722.58,3308.43C2711.64,3319.2 2700.14,3329.39 2688.84,3339.79C2675.26,3352.28 2661.66,3364.76 2648.1,3377.27C2641.06,3383.77 2634.07,3390.33 2626.17,3397.68C2623.48,3384.43 2632.85,3379.48 2639.39,3373.24C2647.95,3365.08 2657.26,3357.71 2666.06,3349.79C2677.3,3339.69 2688.34,3329.36 2699.49,3319.16C2703.99,3315.05 2708.45,3310.9 2713.1,3306.97C2717.37,3303.35 2718.94,3299.18 2718.91,3293.39C2718.68,3231.54 2718.77,3169.68 2718.77,3107.82ZM2738.4,2825.28C2738.36,2816.27 2731.64,2809.18 2723.03,2809.07C2714.89,2808.96 2705.36,2818.04 2705.7,2825.58C2706.07,2833.81 2715.1,2842.15 2723.36,2841.88C2731.69,2841.61 2738.44,2834.15 2738.4,2825.28Z" />
        </g>
        <g transform="matrix(1,0,0,1,3082.49,1923.52)">
            <path d="M0,76.671C-9.151,76.547 -16.239,82.993 -16.53,91.703C-16.82,100.371 -8.691,109.197 -0.355,109.264C7.368,109.327 15.745,100.627 15.862,92.422C15.985,83.75 8.978,76.792 0,76.671M15.823,-14.918C16.026,-25.002 9.615,-32.114 0.061,-32.225C-10.051,-32.344 -15.292,-26.8 -16.511,-15.73C-17.471,-7.012 -9.631,0.391 -0.409,0.452C8.521,0.512 15.647,-6.236 15.823,-14.918M4.324,67.201C20.656,71.14 30.722,91.316 17.947,109.312C10.43,119.903 -11.143,119.957 -18.687,109.28C-29.478,94.011 -25.092,76.782 -8.418,68.193C-6.957,67.441 -5.35,65.238 -5.33,63.69C-5.124,47.038 -4.927,30.37 -5.535,13.736C-5.635,11.005 -9.146,7.606 -11.93,5.902C-24.084,-1.537 -28.297,-15.419 -21.721,-28.134C-16.177,-38.853 -2.17,-43.286 9.857,-38.174C19.347,-34.141 23.147,-26.272 23.786,-16.697C24.427,-7.091 20.463,0.88 11.923,5.192C5.667,8.351 4.011,12.379 4.187,18.949C4.61,34.864 4.324,50.798 4.324,67.201" />
        </g>
        <g transform="matrix(1,0,0,1,2790.92,2281.95)">
            <path d="M0,33.674C8.563,33.676 17.007,25.307 16.978,16.848C16.954,9.954 7.651,1.122 0.326,1.04C-8.121,0.945 -15.715,8.503 -15.621,16.912C-15.513,26.671 -8.988,33.672 0,33.674M-70.115,33.654C-61.031,33.675 -54.597,26.729 -54.568,16.87C-54.543,8.43 -61.528,1.186 -69.854,1.018C-78.758,0.839 -86.962,8.249 -87.113,16.609C-87.288,26.323 -80,33.632 -70.115,33.654M-25.06,20.858C-29.347,20.858 -32.94,21.163 -36.462,20.788C-42.102,20.187 -44.397,22.414 -47.489,27.562C-55.487,40.878 -67.706,46.394 -83.976,38.078C-95.055,32.415 -98.489,15.379 -91.441,4.198C-84.777,-6.373 -68.562,-10.431 -58.089,-3.292C-53.432,-0.118 -50.21,5.129 -46.184,9.287C-44.896,10.616 -43.247,11.951 -41.529,12.414C-39.531,12.953 -37.261,12.369 -35.135,12.566C-28.905,13.142 -24.909,12.062 -21.477,5.204C-16.568,-4.6 -0.779,-12.72 16.432,-1.244C25.892,5.064 28.48,22.509 20.372,32.082C14.328,39.218 5.969,43.466 -3.672,41.466C-14.538,39.211 -22.882,33.368 -25.06,20.858" />
        </g>
        <g transform="matrix(1,0,0,1,2697.32,2616.72)">
            <path d="M0,-0.777C-0.164,8.152 6.708,15.368 15.401,15.396C25.218,15.429 32.212,9.092 32.362,0.03C32.535,-10.454 26.38,-16.85 15.815,-17.164C6.794,-17.431 0.181,-10.58 0,-0.777M-90.769,3.133L-90.769,-4.054L-8.58,-4.054C-5.636,-15.308 0.378,-22.897 11.85,-24.944C24.291,-27.165 36.366,-19.839 39.624,-8.098C43.126,4.519 36.883,17.621 25.382,21.79C12.697,26.388 -0.861,21.531 -5.822,9.577C-7.934,4.491 -10.64,3.77 -15.344,3.799C-39.844,3.952 -64.345,3.817 -88.846,3.759C-89.285,3.758 -89.724,3.483 -90.769,3.133" />
        </g>
        <g transform="matrix(1,0,0,1,2876.91,1078.27)">
            <path d="M0,66.659C0.107,57.509 -6.923,49.757 -15.42,49.659C-23.533,49.565 -32.425,58.119 -32.569,66.159C-32.704,73.652 -23.615,82.143 -15.514,82.094C-7.153,82.043 -0.099,75.024 0,66.659M-19.568,-28.466L-11.586,-28.466C-11.586,-8.229 -11.44,11.702 -11.674,31.629C-11.744,37.662 -11.243,41.488 -4.328,44.566C10.741,51.276 12.024,67.387 6.799,77.461C0.531,89.543 -15.965,95.125 -26.419,88.748C-40.938,79.892 -45.131,62.882 -35.378,50.563C-33.023,47.589 -29.251,44.985 -25.631,43.936C-19.875,42.269 -19.449,38.804 -19.508,33.857C-19.723,15.786 -19.578,-2.288 -19.568,-20.36C-19.567,-22.934 -19.568,-25.509 -19.568,-28.466" />
        </g>
        <g transform="matrix(1,0,0,1,2729.56,1107.74)">
            <path d="M0,35.121C-11.232,34.355 -17.12,44.552 -17.211,51.921C-17.32,60.783 -10.18,67.357 -0.54,67.56C7.622,67.731 15.151,60.546 15.422,52.328C15.705,43.714 8.086,35.213 0,35.121ZM-3.63,-43.151L3.868,-43.151C3.868,-37.051 3.866,-31.173 3.868,-25.294C3.873,-9.825 3.977,5.645 3.817,21.113C3.775,25.146 4.842,27.17 8.958,28.922C24.163,35.391 27.672,56.234 16.675,68.582C9.582,76.546 1.496,78.272 -8.225,75.796C-16.806,73.609 -24.87,62.734 -25.285,52.738C-25.73,41.989 -19.268,30.595 -10.034,28.62C-4.234,27.379 -4.264,24.453 -4.275,20.172C-4.332,-0.293 -4.261,-20.759 -4.213,-41.224C-4.212,-41.666 -3.955,-42.107 -3.63,-43.151Z" />
        </g>
        <g transform="matrix(1,0,0,1,2808.65,1075.99)">
            <path d="M0,68.514C-0.066,59.511 -7.312,51.815 -15.641,51.9C-24.399,51.989 -32,59.826 -32.418,68.584C-32.868,78.016 -22.74,84.107 -15.576,84.338C-6.742,84.622 0.066,77.538 0,68.514M-19.283,-26.636C-16.115,-26.473 -14.074,-26.368 -11.361,-26.229C-11.361,-10.379 -11.362,5.046 -11.36,20.472C-11.36,25.95 -11.135,31.439 -11.42,36.903C-11.655,41.413 -10.55,43.965 -5.853,46.003C3.101,49.889 8.722,57.056 9.524,67.198C10.191,75.634 2.093,88.036 -6.419,91.936C-13.433,95.15 -24.692,93.715 -29.91,88.942C-39.987,79.724 -42.248,71.334 -38.772,60.499C-36.235,52.591 -31.889,46.956 -23.684,45.204C-18.998,44.204 -19.255,41.137 -19.262,37.713C-19.299,19.135 -19.282,0.556 -19.283,-18.022L-19.283,-26.636Z" />
        </g>
        <g transform="matrix(1,0,0,1,2994.51,1103.86)">
            <path d="M0,67.344C0.346,56.333 -7.651,50.541 -16.585,50.032C-25.483,49.525 -32.069,56.815 -32.233,66.613C-32.38,75.333 -25.23,82.59 -16.546,82.535C-8.403,82.485 -0.13,74.888 0,67.344ZM-12.832,-24.56L-12.832,41.546C4.639,49.004 10.667,57.89 7.934,71.474C5.78,82.175 -6.051,91.904 -16.804,91.816C-25.964,91.741 -39.803,80.142 -41.461,71.149C-43.822,58.335 -36.686,47.971 -20.683,41.628L-20.683,-24.044C-18.071,-24.215 -16.044,-24.348 -12.832,-24.56Z" />
        </g>
        <path d="M2650.79,3079.42C2650.76,2966.06 2650.75,2852.69 2650.74,2739.33C2650.74,2728.91 2650.73,2728.87 2660.85,2728.87C2696.8,2728.85 2732.75,2728.86 2768.7,2728.86L2776.32,2728.86C2781.27,2713.41 2790.66,2706.46 2803.98,2708C2816.14,2709.41 2825.21,2718.6 2825.1,2731.73C2825,2743.78 2820.69,2751.96 2806.96,2755.72C2793.93,2759.29 2783.89,2753.24 2776.32,2737.62L2658.69,2737.62L2658.69,2746.44C2658.69,2864.29 2658.69,2982.14 2658.68,3099.99C2658.68,3102.6 2658.48,3105.21 2658.37,3107.82L2658.24,3107.82C2658.23,3153.33 2658.19,3198.83 2658.34,3244.33C2658.36,3249.56 2656.9,3253.21 2652.91,3256.64C2643.88,3264.39 2635.25,3272.62 2625.71,3281.35C2622.71,3267.57 2633.04,3262.29 2639.94,3256.76C2646.86,3251.2 2650.6,3246.37 2650.52,3237.15C2650.11,3187.66 2650.33,3138.17 2650.33,3088.68L2650.33,3079.42L2650.79,3079.42ZM2801.39,2716.05C2790.98,2716.16 2784.66,2722.51 2784.48,2733.05C2784.34,2740.77 2792.7,2748.98 2800.73,2749.01C2809.39,2749.05 2817.42,2741.29 2817.39,2732.92C2817.35,2722.61 2811.04,2715.95 2801.39,2716.05Z" />
        <g transform="matrix(1,0,0,1,2632.56,2670.72)">
            <path d="M0,0.023C-0.173,9.133 6.28,15.914 15.253,16.051C24.754,16.197 32.21,9.682 32.56,0.93C32.932,-8.406 25.433,-16.193 15.852,-16.419C7.031,-16.628 0.182,-9.523 0,0.023M-22.168,4.912C-24.363,-3.273 -21.078,-5.122 -14.651,-4.94C-12.574,-4.881 -9.675,-6.563 -8.44,-8.342C1.148,-22.155 9.704,-26.534 22.119,-23.424C33.263,-20.633 39.553,-13.103 40.228,-1.745C40.867,9.015 35.374,18.724 26.801,21.993C14.824,26.557 4.282,24.23 -2.908,15.434C-3.059,15.25 -3.24,15.083 -3.353,14.877C-7.376,7.544 -12.207,1.613 -22.168,4.912" />
        </g>
        <g transform="matrix(1,0,0,1,3006.9,1922.78)">
            <path d="M0,76.669C-9.152,76.546 -16.24,82.991 -16.531,91.701C-16.82,100.37 -8.691,109.195 -0.355,109.263C7.368,109.325 15.745,100.625 15.861,92.42C15.984,83.748 8.978,76.79 0,76.669M15.822,-14.92C16.026,-25.003 9.614,-32.115 0.06,-32.227C-10.052,-32.346 -15.293,-26.802 -16.512,-15.732C-17.472,-7.014 -9.631,0.389 -0.41,0.451C8.521,0.51 15.646,-6.238 15.822,-14.92M4.323,67.2C20.656,71.138 30.722,91.314 17.947,109.311C10.429,119.902 -11.144,119.956 -18.688,109.278C-29.478,94.01 -25.092,76.78 -8.418,68.191C-6.958,67.439 -5.35,65.236 -5.331,63.689C-5.125,47.036 -4.928,30.368 -5.535,13.734C-5.636,11.003 -9.146,7.605 -11.93,5.901C-24.084,-1.538 -28.297,-15.421 -21.721,-28.136C-16.178,-38.854 -2.171,-43.287 9.856,-38.175C19.346,-34.143 23.146,-26.273 23.785,-16.699C24.426,-7.093 20.462,0.878 11.922,5.19C5.667,8.349 4.01,12.377 4.186,18.947C4.61,34.862 4.323,50.796 4.323,67.2" />
        </g>
        <g transform="matrix(1,0,0,1,3133.38,1295.87)">
            <path d="M0,-2.17C-8.409,-2.182 -15.448,4.691 -15.604,13.068C-15.781,22.565 -9.034,30.196 -0.357,30.31C10.204,30.449 16.793,24.142 16.929,13.766C17.056,4.107 10.404,-2.154 0,-2.17M55.729,-30.387C44.9,-20.748 33.958,-11.228 23.411,-1.29C22.332,-0.273 23.287,3.333 23.858,5.596C26.289,15.212 25.356,24.076 18.082,31.375C11.236,38.244 2.69,39.651 -6.317,37.278C-19.851,33.712 -26.901,19.246 -22.237,5.475C-17.738,-7.808 -2.756,-14.299 11.121,-8.126C15.64,-6.115 17.709,-7.304 20.723,-10.095C32.276,-20.795 44.043,-31.265 55.729,-41.821L55.729,-30.387Z" />
        </g>
        <g transform="matrix(1,0,0,1,2651.86,1490.89)">
            <path d="M0,-0.942C0.033,-10.032 -6.867,-17.375 -15.259,-17.18C-23.645,-16.985 -32.23,-9.077 -32.452,-1.343C-32.691,6.989 -24.442,15.274 -15.727,15.455C-6.516,15.647 -0.036,8.891 0,-0.942M362.134,15.531C371.833,15.575 378.674,8.623 378.578,-1.182C378.488,-10.459 371.556,-17.154 362.104,-17.091C353.222,-17.032 346.126,-10.185 345.956,-1.508C345.765,8.272 352.615,15.488 362.134,15.531M337.551,-5.609C344.983,-21.704 353.856,-27.24 367.37,-24.599C378.767,-22.371 386.437,-13.181 386.744,-1.382C387.05,10.31 379.68,20.121 368.551,22.838C356.806,25.705 344.871,20.786 340.534,10.061C338.406,4.798 335.706,3.787 330.613,3.793C226.133,3.926 121.653,3.925 17.173,3.788C12.037,3.782 9.399,4.976 7.115,10.098C1.289,23.159 -17.208,27.251 -30.476,19.161C-41.015,12.734 -43.6,-5.046 -35.564,-15.833C-28.604,-25.177 -12.74,-28.193 -2.813,-21.23C1.614,-18.125 4.649,-13.078 8.52,-9.112C9.946,-7.65 11.915,-6.685 13.73,-5.658C14.272,-5.352 15.132,-5.606 15.847,-5.606C121.525,-5.607 227.204,-5.609 332.883,-5.609L337.551,-5.609Z" />
        </g>
        <g transform="matrix(1,0,0,1,3099.11,1566.36)">
            <path d="M0,1.365C-0.008,10.813 6.657,17.797 15.64,17.753C23.614,17.713 32.204,9.338 32.306,1.501C32.412,-6.683 23.807,-14.831 15.174,-14.719C6.18,-14.602 0.009,-8.06 0,1.365M-398.062,1.689C-397.969,-8.172 -404.23,-14.753 -413.662,-14.706C-422.262,-14.662 -430.363,-7.039 -430.521,1.158C-430.678,9.315 -422.009,17.741 -413.48,17.723C-404.592,17.703 -398.151,11.007 -398.062,1.689M-438.342,-1.8C-438.278,-7.472 -435.159,-14.863 -426.52,-19.341C-416.481,-24.543 -406.804,-24.797 -398.08,-17.022C-394.687,-13.999 -392.453,-9.712 -389.337,-6.325C-387.987,-4.858 -385.797,-3.474 -383.896,-3.337C-378.448,-2.943 -372.953,-3.212 -367.478,-3.211C-250.569,-3.206 -133.662,-3.222 -16.754,-3.108C-12.007,-3.103 -9.396,-3.947 -7.292,-8.968C-1.874,-21.899 14.72,-26.437 27.887,-19.385C39.964,-12.916 44.402,2.41 37.125,14.164C32.271,22.003 24.537,25.427 15.446,25.326C4.765,25.209 -3.433,20.253 -7.821,10.612C-9.611,6.678 -11.599,6.014 -15.254,6.016C-137.638,6.073 -260.022,6.085 -382.406,5.957C-386.953,5.952 -388.628,7.642 -390.649,11.579C-395.176,20.395 -406.169,27.802 -418.623,25.168C-431.198,22.509 -438.265,14.148 -438.342,-1.8" />
        </g>
        <g transform="matrix(1,0,0,1,2668.71,1669.57)">
            <path d="M0,70.009C-0.002,78.572 8.366,87.016 16.825,86.987C23.72,86.963 32.552,77.66 32.634,70.336C32.729,61.888 25.171,54.295 16.762,54.388C7.003,54.496 0.002,61.021 0,70.009M0.02,-0.106C-0.002,8.978 6.944,15.412 16.804,15.441C25.243,15.466 32.487,8.48 32.655,0.155C32.835,-8.749 25.425,-16.953 17.064,-17.104C7.351,-17.28 0.042,-9.991 0.02,-0.106M12.815,44.95C12.815,40.662 12.51,37.069 12.886,33.548C13.486,27.907 11.26,25.612 6.111,22.52C-7.204,14.522 -12.72,2.302 -4.404,-13.967C1.258,-25.046 18.295,-28.48 29.476,-21.432C40.047,-14.768 44.104,1.447 36.966,11.92C33.791,16.578 28.545,19.8 24.387,23.826C23.058,25.113 21.723,26.762 21.26,28.48C20.721,30.478 21.305,32.749 21.107,34.874C20.531,41.104 21.612,45.1 28.47,48.532C38.274,53.441 46.394,69.23 34.917,86.441C28.609,95.901 11.165,98.489 1.592,90.382C-5.545,84.337 -9.793,75.977 -7.792,66.337C-5.537,55.471 0.305,47.128 12.815,44.95" />
        </g>
        <g transform="matrix(1,0,0,1,3279.03,2899.6)">
            <path d="M0,-1272.09C55.024,-1295.62 81.899,-1338.56 102.745,-1394.06C104.599,-1394.48 106.453,-1394.9 108.307,-1395.32C113.588,-1380.17 122.49,-1365.27 123.513,-1349.84C127.604,-1288.12 146.525,-1232.64 182.661,-1182.17C199.063,-1159.25 189.984,-1134.31 160.119,-1110.36C126.85,-1133.77 112.143,-1166.7 111.544,-1206.73C111.318,-1221.83 114.995,-1238.73 93.09,-1241.15C78.229,-1242.79 71.718,-1231.64 72.046,-1206.19C72.813,-1146.67 98.43,-1101.75 148.633,-1068.87C171.157,-1054.11 191.081,-1034.64 209.634,-1014.91C217.907,-1006.12 221.368,-991.749 224.328,-979.274C227.687,-965.113 233.738,-955.106 249.108,-958.473C264.48,-961.84 266.143,-974.392 263.569,-988.05C256.836,-1023.78 237.436,-1051.67 210.364,-1074.9C205.993,-1078.65 201.696,-1082.49 196.67,-1086.9C203.187,-1094.73 208.935,-1101.63 215.793,-1109.87C266.667,-1056.88 284.693,-995.407 271.061,-924.372C269.339,-915.404 267.252,-906.432 264.394,-897.772C260.02,-884.524 256.595,-870.782 272.794,-864.263C290.026,-857.328 297.444,-869.907 307.932,-888.896C310.081,-884.225 311.387,-878.879 314.507,-874.988C354.178,-825.521 386.816,-771.922 402.507,-710.145C420.667,-638.647 411.145,-570.069 372.618,-506.313C370.591,-502.958 366.534,-499.357 366.911,-496.301C367.984,-487.585 368.305,-475.083 373.735,-471.619C379.347,-468.04 392.533,-470.717 398.915,-475.406C406.679,-481.112 410.795,-491.78 416.719,-500.645C444.016,-459.248 438.18,-392.639 402.445,-341.931C390.999,-354.415 379.945,-366.735 368.591,-378.772C359.194,-388.733 347.836,-394.959 336.237,-383.787C323.851,-371.854 330.364,-361.024 340.689,-350.246C385.404,-303.563 415.975,-250.137 405.777,-182.985C396.823,-124.013 366.397,-75.625 321.342,-36.613C281.983,-2.535 235.357,23.895 206.815,69.351C193.021,91.322 180.876,114.44 169.536,137.792C163.497,150.229 162.676,165.054 179.005,170.751C195.454,176.489 201.583,164.142 206.577,150.763C224.128,103.748 255.403,67.213 295.005,37.064C285.164,76.402 265.92,110.739 240.814,141.851C197.759,195.207 141.611,229.793 78.229,253.741C74.574,255.123 69.137,255.333 67.536,257.937C62.883,265.505 55.324,275.401 57.31,281.759C59.218,287.871 71.411,293.597 79.481,294.201C88.346,294.864 97.662,289.483 110.103,285.734C88.714,330.228 58.125,361.388 19.854,385.303C-33.973,418.937 -93.469,435.008 -156.25,439.694C-188.713,442.116 -194.562,451.087 -180.083,480.691C-211.372,498.778 -243.738,513.494 -280.588,515.952C-310.055,517.918 -336.376,510.789 -357.663,489.319C-368.158,478.734 -379.909,473.371 -391.436,485.981C-402.419,497.995 -395.295,508.958 -385.389,518.168C-378.314,524.746 -370.984,531.05 -362.338,538.749C-407.872,585.527 -461.127,616.592 -523.329,632.084C-562.403,641.816 -602.119,644.799 -641.943,637.196C-693.983,627.26 -722.553,600.246 -730.023,548.26C-734.028,520.392 -730.734,491.474 -730.734,459.504C-718.384,467.515 -710.88,475.301 -702.12,477.156C-694.875,478.691 -682.667,475.563 -679.056,470.196C-675.454,464.845 -676.624,449.774 -681.172,446.451C-727.74,412.433 -730.984,365.166 -724.123,314.375C-722.902,305.338 -721.361,296.122 -718.279,287.601C-708.833,261.484 -704.22,237.252 -717.527,209.273C-727.855,187.558 -722.049,162.244 -708.074,138.276C-676.383,69.734 -719.588,-23.861 -704.039,-74.018C-699.304,-70.151 -695.267,-64.185 -690.532,-63.566C-681.848,-62.432 -669.274,-61.234 -664.807,-66.063C-660.354,-70.875 -660.979,-84.495 -664.568,-91.648C-669.659,-101.793 -680.278,-108.984 -687.188,-118.424C-723.15,-167.549 -729.62,-222.792 -718.687,-280.929C-714.968,-300.7 -708.57,-319.967 -702.91,-341.3C-698.866,-339.187 -696.518,-338.552 -694.995,-337.069C-685.687,-328 -675.395,-325.636 -665.479,-334.877C-655.493,-344.183 -658.321,-354.298 -665.539,-364.68C-677.45,-381.818 -690.11,-398.727 -699.612,-417.195C-738.793,-493.342 -719.849,-567.338 -649.622,-616.937C-645.887,-619.575 -639.891,-621.243 -638.625,-624.707C-635.422,-633.476 -634.313,-643.01 -632.366,-652.238C-641.61,-654.029 -652.127,-659.456 -659.802,-656.768C-671.604,-652.635 -681.455,-642.928 -692.176,-635.557C-735.165,-731.419 -730.291,-862.028 -611.303,-936.605C-575.876,-958.808 -534.363,-971.322 -495.555,-988.081C-491.414,-989.869 -485.091,-988.907 -482.583,-991.72C-476.397,-998.658 -467.379,-1007.2 -467.632,-1014.82C-468.06,-1027.7 -479.658,-1032.74 -492.342,-1029.64C-508.82,-1025.6 -525.058,-1020.58 -541.389,-1015.95C-547.449,-1014.23 -553.482,-1012.41 -558.632,-1010.91C-563.32,-1032.3 -566.724,-1052.09 -572.19,-1071.29C-575.887,-1084.27 -584.742,-1093.93 -600.051,-1087.95C-615.153,-1082.05 -613.695,-1070.53 -609.687,-1056.98C-605.501,-1042.83 -602.776,-1027.75 -602.653,-1013.04C-602.523,-997.572 -609.812,-985.286 -624.297,-976.178C-645.131,-963.079 -664.266,-947.277 -684.191,-932.581C-733.961,-975.128 -738.849,-1060.92 -694.67,-1133.22C-692.695,-1132.22 -690.293,-1131.56 -688.623,-1130.08C-678.283,-1120.88 -667.356,-1118.83 -657.843,-1130.05C-649.061,-1140.4 -653.017,-1150.44 -661.666,-1159.6C-688.378,-1187.89 -711.327,-1218.81 -723.375,-1256.33C-745.888,-1326.42 -721.627,-1384.39 -675.304,-1436.25C-670.96,-1441.11 -663.895,-1444.62 -661.801,-1450.16C-658.537,-1458.8 -654.501,-1470.57 -657.905,-1477.53C-663.63,-1489.25 -675.849,-1488.51 -686.486,-1480.73C-689.04,-1478.86 -691.596,-1476.99 -694.021,-1475.21C-739.969,-1516.62 -754.56,-1590.77 -727.91,-1644.99C-709.55,-1682.35 -667.021,-1699.07 -614.303,-1689.65C-608.521,-1688.62 -601.851,-1685.25 -597.16,-1687.05C-589.102,-1690.14 -578.835,-1694.9 -575.72,-1701.77C-570.644,-1712.98 -578.306,-1723.53 -590.139,-1724.63C-617.918,-1727.19 -645.906,-1727.55 -673.816,-1728.62C-676.922,-1728.73 -680.071,-1727.67 -685.444,-1726.79C-686.565,-1765.47 -671.185,-1796.01 -645.248,-1821.33C-603.45,-1862.14 -550.222,-1878.04 -494.217,-1884.37C-385.25,-1896.68 -286.664,-1870.63 -201.604,-1799.52C-193.633,-1792.86 -186.838,-1784.76 -179.77,-1777.07C-177.728,-1774.85 -176.638,-1771.76 -173.235,-1765.76C-185.937,-1765.76 -196.023,-1765.95 -206.1,-1765.71C-219.842,-1765.38 -229.565,-1759.05 -228.598,-1744.51C-227.72,-1731.35 -218.214,-1726.81 -205.229,-1726.15C-183.786,-1725.07 -161.803,-1724.93 -141.14,-1719.9C-61.414,-1700.5 -15.08,-1643.49 -2.515,-1551.98C-0.561,-1537.75 0.585,-1523.36 1.196,-1509C1.789,-1495.1 -0.032,-1479.53 18.938,-1477.22C37.188,-1474.99 40.256,-1489.6 42.513,-1504.23C90.776,-1433.79 61.063,-1360.52 -7.511,-1314.58C-31.253,-1300.91 -26.412,-1279.35 -6.958,-1270.9M433.173,-314.506C483.728,-387.541 485.423,-462.526 444.506,-540.185C440.789,-547.239 439.7,-557.475 441.463,-565.318C451.336,-609.24 454.82,-653.425 446.064,-697.633C428.804,-784.789 383.699,-857.423 326.045,-923.394C320.249,-930.026 314.865,-940.268 315.259,-948.552C318.896,-1025.11 292.798,-1089.35 238.588,-1142.92C234.369,-1147.09 231.886,-1153.42 229.689,-1159.16C222.373,-1178.3 218.667,-1199.61 207.913,-1216.47C183.798,-1254.29 168.462,-1293.75 165.399,-1338.93C162.583,-1380.47 150.144,-1418.62 111.351,-1442.41C107.704,-1444.65 105.194,-1450.58 104.315,-1455.21C95.016,-1504.15 70.012,-1545 39.687,-1583.33C34.196,-1590.27 29.062,-1598.26 26.479,-1606.61C4.105,-1678.89 -40.859,-1729.27 -113.212,-1754.31C-118.994,-1756.31 -123.963,-1762.43 -127.891,-1767.7C-141.061,-1785.36 -151.189,-1805.97 -166.745,-1821.05C-278.078,-1929 -473.253,-1959.57 -612.949,-1891.69C-684.996,-1856.69 -725.317,-1800.2 -726.861,-1718.42C-726.951,-1713.65 -727.843,-1707.06 -730.972,-1704.46C-756.409,-1683.3 -771.322,-1617.15 -778.717,-1580.83C-778.09,-1572.88 -777.664,-1564.91 -777.749,-1556.93C-777.79,-1553.05 -778.126,-1549.18 -778.16,-1545.3C-778.17,-1544.11 -778.147,-1542.87 -778.288,-1541.67C-762.251,-1512.72 -744.153,-1473.59 -725.107,-1439.45C-726.216,-1437.82 -729.196,-1433.55 -732.06,-1429.2C-780.748,-1355.32 -786.528,-1278.5 -741.562,-1201.89C-726.938,-1176.97 -726.707,-1159.96 -739.065,-1134.02C-777.798,-1052.73 -776.622,-973.483 -713.451,-902.274C-712.288,-900.964 -712.12,-898.771 -711.488,-896.99C-713.249,-897.519 -715.01,-898.049 -716.77,-898.578C-728.475,-864.949 -743.713,-832.076 -751.114,-797.526C-764.652,-734.332 -749.79,-673.144 -729.44,-613.091C-727.123,-606.252 -727.168,-595.984 -730.76,-590.176C-769.534,-527.461 -768.281,-463.983 -735.484,-399.948C-729.329,-387.93 -728.52,-378.609 -733.811,-365.576C-765.551,-287.396 -777.136,-208.297 -740.131,-127.939C-737.787,-122.849 -739.418,-115.376 -740.623,-109.294C-753.507,-44.241 -755.017,20.345 -735.669,84.69C-733.463,92.026 -735.274,102.609 -739.183,109.41C-762.757,150.445 -768.383,192.531 -751.654,237.464C-749.233,243.969 -751.038,252.353 -751.944,259.738C-756.45,296.458 -767.003,333.563 -764.293,369.698C-762.015,400.073 -763.238,428.718 -767.579,458.339C-771.063,482.124 -772.818,506.547 -771.804,530.538C-768.042,619.505 -715.381,673.168 -626.484,679.392C-511.081,687.472 -413.801,647.941 -332.749,566.25C-327.791,561.253 -319.899,554.875 -314.176,555.588C-252.558,563.27 -198.251,542.371 -150.332,508.128C-115.513,483.245 -79.021,467.326 -38.679,454.402C57.079,423.725 128.408,364.442 162.147,266.028C164.541,259.045 172.18,252.866 178.812,248.483C260.021,194.804 315.304,121.881 340.135,27.611C346.36,3.975 357.471,-13.877 373.21,-32.155C439.221,-108.817 470.909,-193.825 429.042,-294.249C426.809,-299.605 429.484,-309.177 433.173,-314.506Z" />
        </g>
    </g>
</svg>
